<?xml version="1.0" standalone="no"?>
<!DOCTYPE svg PUBLIC "-//W3C//DTD SVG 1.1//EN" "http://www.w3.org/Graphics/SVG/1.1/DTD/svg11.dtd" >
<svg>
<metadata>
Created by FontForge 20090914 at Thu Mar 28 00:20:22 2013
 By www-data
&#194;&#169;1991,1993 Tilde Ltd. AG Fonts collection.
</metadata>
<defs>
<font id="AGLettericaCondensedLight-Roman" horiz-adv-x="444" >
  <font-face 
    font-family="AGLettericaCondensedLight"
    font-weight="400"
    font-stretch="normal"
    units-per-em="1000"
    panose-1="0 0 0 0 0 0 0 0 0 0"
    ascent="800"
    descent="-200"
    x-height="552"
    cap-height="750"
    bbox="-40 -191.001 1000 943"
    underline-thickness="58"
    underline-position="-61"
    unicode-range="U+0020-U+2122"
  />
<missing-glyph horiz-adv-x="800" 
d="M50 0v800h700v-800h-700zM700 50v700h-600v-700h600z" />
    <glyph glyph-name=".notdef" horiz-adv-x="800" 
d="M50 0v800h700v-800h-700zM700 50v700h-600v-700h600z" />
    <glyph glyph-name="space" unicode=" " horiz-adv-x="222" 
 />
    <glyph glyph-name="exclam" unicode="!" horiz-adv-x="222" 
d="M133 189h-40c0 44.667 -1 89.667 -3 135c-6 136 -9 211.667 -9 227v199h64v-199c0 -44.667 -1 -89.667 -3 -135c-6 -136 -9 -211.667 -9 -227zM146 13h-69v88h69v-88z" />
    <glyph glyph-name="quotedbl" unicode="&#x22;" horiz-adv-x="309" 
d="M73 524v226h52v-226h-52zM184 524v226h52v-226h-52z" />
    <glyph glyph-name="numbersign" unicode="#" 
d="M49 0l64 249h-100l15 51h97l34 131h-99l15 51h96l65 262h48l-66 -262h70l65 262h47l-65 -262h96l-15 -51h-92l-34 -131h94l-15 -51h-91l-62 -249h-50l64 249h-70l-64 -249h-47zM172 300h70l34 131h-69z" />
    <glyph glyph-name="dollar" unicode="$" 
d="M197 402l0.00195312 258c-34.667 -5.33301 -59.834 -19 -75.501 -41s-23.5 -51 -23.5 -87c0 -26 8.16699 -51.167 24.5 -75.5s41.166 -42.5 74.499 -54.5zM244.002 315v-278c36 0 64.667 14.333 86 43c19.333 26 29 58 29 96c0 34 -11.333 63 -34 87
c-18.667 20 -45.667 37.333 -81 52zM244.002 -14v-82.001h-47v82c-60 5.33301 -104.333 29.333 -133 72c-25.333 38 -38 89 -38 153h60c0 -47.333 7 -85 21 -113c18 -36 48 -56 90 -60v298c-52 22.667 -90.333 47.334 -115 74.001c-31.333 34 -47 76.333 -47 127
c0 34.667 8.33301 66 25 94c28 46.667 73.667 73.334 137 80.001v67h47v-62c56.667 -12 98 -37.333 124 -76c20.667 -31.333 31 -70.333 31 -117h-58c0 32 -7 59.667 -21 83c-16.667 28.667 -42 46.667 -76 54v-278c29.333 -12.667 54.666 -25.334 75.999 -38.001
c16.667 -10 31.334 -21 44.001 -33c19.333 -18 33.5 -37.333 42.5 -58s13.5 -46 13.5 -76c0 -54.667 -15.667 -98.667 -47 -132s-74.333 -53 -129 -59z" />
    <glyph glyph-name="percent" unicode="%" horiz-adv-x="778" 
d="M575 358c48 0 83.001 -19.001 105.001 -57.001c17.333 -30.667 26 -72 26 -124c0 -62 -11.333 -107.333 -34 -136s-55.334 -43 -98.001 -43c-52 0 -88.333 18.333 -109 55c-16 28.667 -24 70 -24 124c0 54.667 8.33301 96.334 25 125.001c22 37.333 58.333 56 109 56z
M577.001 41.999c26 0 44.667 12.166 56 36.499s17 57.166 17 98.499c0 40.667 -3.33301 70.334 -10 89.001c-11.333 32 -33 48 -65 48c-31.333 0 -53.333 -17.333 -66 -52c-8 -22.667 -12 -51 -12 -85c0 -49.333 6.5 -84.166 19.5 -104.499s33.167 -30.5 60.5 -30.5z
M207.001 727.998c48 0 83.001 -19.001 105.001 -57.001c17.333 -30.667 26 -72 26 -124c0 -62 -11.333 -107.167 -34 -135.5s-55.334 -42.5 -98.001 -42.5c-52 0 -88.333 18.333 -109 55c-16 28 -24 69 -24 123c0 54.667 8.33301 96.334 25 125.001
c22 37.333 58.333 56 109 56zM209.002 412.997c26 0 44.667 12.167 56 36.5s17 57.166 17 98.499c0 40 -3.33301 69.333 -10 88c-11.333 32 -33 48 -65 48c-31.333 0 -53.333 -17.333 -66 -52c-8 -22 -12 -50 -12 -84c0 -49.333 6.5 -84.166 19.5 -104.499
s33.167 -30.5 60.5 -30.5zM215.002 -15.0029l304 756h44l-304 -756h-44z" />
    <glyph glyph-name="ampersand" unicode="&#x26;" horiz-adv-x="611" 
d="M416 119l-173.998 264c-38 -28.667 -65.667 -56 -83 -82c-20.667 -32 -31 -69.667 -31 -113c0 -44.667 12.833 -80.5 38.5 -107.5s60.167 -40.5 103.5 -40.5c33.333 0 61.666 6 84.999 18s43.666 32.333 60.999 61zM260.002 470c26 18 47.168 40.833 63.501 68.5
s24.5 57.167 24.5 88.5c0 55.333 -25.667 83 -77 83c-50.667 0 -76 -26 -76 -78c0 -29.333 6.33301 -58.333 19 -87c9.33301 -21.333 24.666 -46.333 45.999 -75zM215.003 431c-27.333 40.667 -45.998 71.667 -55.998 93c-14.667 32.667 -22 68 -22 106
c0 43.333 12.5 77.166 37.5 101.499s58.5 36.5 100.5 36.5c40 0 73 -12 99 -36s39 -56.667 39 -98c0 -44.667 -11.333 -84.667 -34 -120c-18.667 -29.333 -47.667 -58.666 -87 -87.999l156 -244l3 6c8 23.333 14 48.5 18 75.5s6 53.5 6 79.5h65
c0 -30 -4.5 -66.5 -13.5 -109.5s-19.833 -76.167 -32.5 -99.5l-4 -8l83 -133h-71l-51 76l-3 -4c-24 -29.333 -50.333 -50.5 -79 -63.5s-62.334 -19.5 -101.001 -19.5c-63.333 0 -113.333 18.667 -150 56s-55 89.333 -55 156c0 50 15.333 96 46 138
c23.333 31.333 58.666 64.333 105.999 99z" />
    <glyph glyph-name="quotesingle" unicode="'" horiz-adv-x="198" 
d="M73 524v226h52v-226h-52z" />
    <glyph glyph-name="parenleft" unicode="(" horiz-adv-x="278" 
d="M197 768l47 -0.000976562c-44 -66.667 -76.167 -139.5 -96.5 -218.5s-30.5 -162.5 -30.5 -250.5c0 -93.333 9.83301 -180.333 29.5 -261s52.167 -157 97.5 -229h-47c-96.667 147.333 -145 310.333 -145 489c0 86.667 12 169.834 36 249.501s60.333 153.167 109 220.5z
" />
    <glyph glyph-name="parenright" unicode=")" horiz-adv-x="278" 
d="M81 -191l-47.001 -0.000976562c43.333 65.333 75.333 138.5 96 219.5s31 163.833 31 248.5c0 90.667 -9.16699 174.5 -27.5 251.5s-49.166 153.5 -92.499 229.5l-7 10h47c46.667 -70 82.5 -146 107.5 -228s37.5 -165 37.5 -249c0 -90 -11.333 -174.333 -34 -253
c-24.667 -85.333 -61.667 -161.666 -111 -228.999z" />
    <glyph glyph-name="asterisk" unicode="*" horiz-adv-x="389" 
d="M156 593l-108 37l14 42l112 -42v114h44v-114l111 42l13 -45l-109 -36l72 -105l-36 -24l-75 107l-77 -107l-35 27z" />
    <glyph glyph-name="plus" unicode="+" 
d="M197 220h-176v51h176v219h51v-219h176v-51h-176v-220h-51v220z" />
    <glyph glyph-name="comma" unicode="," horiz-adv-x="222" 
d="M77 -136l0.00292969 37c11.333 4.66699 19.166 12.5 23.499 23.5s6.5 31.833 6.5 62.5v13h-30v88h69v-56c0 -7.33301 -0.333008 -19 -1 -35s-1 -28 -1 -36c-2.66699 -30 -8.83398 -52.167 -18.501 -66.5s-25.834 -24.5 -48.501 -30.5z" />
    <glyph glyph-name="hyphen" unicode="-" horiz-adv-x="333" 
d="M294 269h-259v58h259v-58z" />
    <glyph glyph-name="period" unicode="." horiz-adv-x="222" 
d="M146 0h-69v88h69v-88z" />
    <glyph glyph-name="slash" unicode="/" horiz-adv-x="278" 
d="M-10 -94l244 844h55l-245 -844h-54z" />
    <glyph glyph-name="zero" unicode="0" 
d="M37 370c0 146 18.666 247.999 55.999 305.999c29.333 45.333 73.333 68 132 68c52 0 93 -20 123 -60c23.333 -31.333 39.666 -76.666 48.999 -135.999c6.66699 -42 10 -90.333 10 -145v-50c0 -74.667 -3.33301 -133 -10 -175c-9.33301 -60 -26.666 -105.667 -51.999 -137
c-29.333 -36.667 -71.333 -55 -126 -55c-51.333 0 -91 17.667 -119 53c-25.333 31.333 -42.166 74 -50.499 128s-12.5 121.667 -12.5 203zM101.999 352.999c0 -116 8.66699 -197.167 26 -243.5s47.333 -69.5 90 -69.5c34.667 0 60.667 13.333 78 40
c30.667 48 46 140.667 46 278c0 116 -6 195.333 -18 238c-17.333 62.667 -53.333 94 -108 94c-42 0 -71.5 -24.333 -88.5 -73s-25.5 -136.667 -25.5 -264z" />
    <glyph glyph-name="one" unicode="1" 
d="M60 560v47c55.333 0 95.333 8.66699 120 26c28.667 20.667 45.667 57.667 51 111h53v-744h-65v572c-12.667 -2.66699 -25 -4.66699 -37 -6s-24.667 -2 -38 -2c-9.33301 0 -25.333 -0.666992 -48 -2s-34.667 -2 -36 -2z" />
    <glyph glyph-name="two" unicode="2" 
d="M99 61h296.998v-61h-362v52c0 42 7 76.333 21 103c6 12 44 53.667 114 125l84.5 88c27.667 29.333 46.834 56 57.501 80c13.333 30 20 64.333 20 103c0 34.667 -7.33301 65 -22 91c-18 32 -42.667 48 -74 48c-4.66699 0.666992 -11.667 1 -21 1
c-41.333 0 -71.333 -17.667 -90 -53c-14.667 -28 -22 -66.333 -22 -115h-62c0 64 13.667 115.333 41 154c32 44.667 78 67 138 67c52.667 0 95.334 -18 128.001 -54s49 -84.333 49 -145c0 -49.333 -14.333 -98 -43 -146c-21.333 -36 -55 -77 -101 -123l-112 -108
c-10 -10 -18.333 -22 -25 -36c-10.667 -22 -16 -45.667 -16 -71z" />
    <glyph glyph-name="three" unicode="3" 
d="M192 353l-43.998 -0.000976562v54h20c99.333 0 149 49.667 149 149c0 38.667 -7.33301 69.334 -22 92.001c-18 28 -45.667 42 -83 42s-65.333 -16 -84 -48c-15.333 -26.667 -23 -59.334 -23 -98.001h-59c0 56.667 12.333 102.667 37 138c28.667 41.333 70 62 124 62
c56 0 99.667 -18.333 131 -55c29.333 -34.667 44 -80.667 44 -138c0 -38 -9.66699 -71.667 -29 -101s-46 -51 -80 -65c47.333 -10.667 81.666 -35.667 102.999 -75c16.667 -30.667 25 -68.667 25 -114c0 -67.333 -16.833 -119.166 -50.5 -155.499
s-79.167 -54.5 -136.5 -54.5c-55.333 0 -98.333 15 -129 45c-36.667 36 -55 90.333 -55 163h61c0 -45.333 8.33301 -81 25 -107c20.667 -31.333 52.667 -47 96 -47c42.667 0 74.667 16.333 96 49c18.667 28 28 64.333 28 109c0 39.333 -8.33301 72 -25 98
c-24.667 38 -64.334 57 -119.001 57z" />
    <glyph glyph-name="four" unicode="4" 
d="M28 260l257 484h61v-490h66v-54h-66v-200h-65v200h-253v60zM87 254h194v373z" />
    <glyph glyph-name="five" unicode="5" 
d="M27 178l64 -0.000976562c0 -40.667 8 -72.667 24 -96c19.333 -28 48.666 -42 87.999 -42c46.667 0 81 21.333 103 64c18 35.333 27 81.333 27 138c0 54.667 -8.33301 97 -25 127c-21.333 38 -55.666 57 -102.999 57c-22.667 0 -43.167 -6.66699 -61.5 -20
s-32.166 -30.666 -41.499 -51.999h-55l43 376h278v-61h-224l-28 -227c13.333 13.333 29.166 23 47.499 29s36.833 9 55.5 9c63.333 0 110.333 -25 141 -75c25.333 -41.333 38 -96.333 38 -165c0 -72 -14.333 -130.333 -43 -175c-34 -52.667 -84.333 -79 -151 -79
c-60 0 -104.5 17 -133.5 51s-43.5 81 -43.5 141z" />
    <glyph glyph-name="six" unicode="6" 
d="M222 416c-44 0 -76 -18.668 -96 -56.001c-16 -29.333 -24 -67.666 -24 -114.999c0 -51.333 7.66699 -95 23 -131c21.333 -49.333 54 -74 98 -74c42.667 0 74.667 22.667 96 68c16 34.667 24 76 24 124c0 50 -7.66699 90.667 -23 122c-20 41.333 -52.667 62 -98 62z
M226 -14.001c-54 0 -96.335 19.666 -127.002 58.999c-24.667 31.333 -42 76 -52 134c-6.66699 38.667 -10 87 -10 145c0 118 7.66699 205 23 261c29.333 106 88 159 176 159c46.667 0 84.5 -14.833 113.5 -44.5s43.5 -69.5 43.5 -119.5h-60c0 34.667 -8.33301 61.667 -25 81
s-42.667 29 -78 29c-27.333 0 -51 -13 -71 -39c-16 -20.667 -27.5 -45.667 -34.5 -75s-12.5 -58.666 -16.5 -87.999s-6 -59 -6 -89c18.667 23.333 38.834 41 60.501 53s46.167 18 73.5 18c60 0 105.333 -26.667 136 -80c24 -42 36 -93.333 36 -154
c0 -65.333 -11.333 -119.333 -34 -162c-31.333 -58.667 -80.666 -88 -147.999 -88z" />
    <glyph glyph-name="seven" unicode="7" 
d="M51 669v61h361v-59c-28.667 -35.333 -60.667 -88.333 -96 -159c-27.333 -54.667 -50 -106 -68 -154c-47.333 -124.667 -71 -244 -71 -358h-65c0 106.667 21.667 222 65 346s100 231.667 170 323h-296z" />
    <glyph glyph-name="eight" unicode="8" 
d="M220 364c-36 0 -64.332 -12.667 -84.999 -38c-22.667 -28 -34 -67.667 -34 -119c0 -46 8.33301 -83.667 25 -113c20.667 -36 50.667 -54 90 -54c46.667 0 80.667 17 102 51c17.333 28 26 66.667 26 116c0 47.333 -8.66699 84 -26 110
c-20.667 31.333 -53.334 47 -98.001 47zM221.001 690c-45.333 0 -74.832 -22.834 -88.499 -68.501s-17.5 -71.5 -11.5 -77.5c1.33301 -37.333 9.33301 -66.666 24 -87.999c17.333 -25.333 43.666 -38 78.999 -38c34 0 59.667 14.667 77 44c14 24 21 54.333 21 91
c0 40 -6.66699 71.333 -20 94c-16.667 28.667 -43.667 43 -81 43zM142.002 395.999c-30 12.667 -51.6699 34.667 -65.0029 66c-10.667 25.333 -16 57 -16 95c0 54 13 97.667 39 131c28.667 37.333 69.334 56 122.001 56c55.333 0 97 -18.667 125 -56
c24.667 -33.333 37 -79 37 -137c0 -35.333 -5.66699 -65.333 -17 -90c-13.333 -29.333 -34.333 -50.333 -63 -63c38 -20 65.667 -48 83 -84c14.667 -31.333 22 -68 22 -110c0 -77.333 -17.333 -134 -52 -170c-30.667 -32 -80.667 -48 -150 -48
c-49.333 0 -90.166 19.667 -122.499 59s-48.5 91.333 -48.5 156c0 44.667 6.66699 81.334 20 110.001c16.667 35.333 45.334 63.666 86.001 84.999z" />
    <glyph glyph-name="nine" unicode="9" 
d="M221 690c-42.667 0 -74 -22.666 -94 -67.999c-14.667 -33.333 -22 -75 -22 -125c0 -51.333 7 -92 21 -122c19.333 -41.333 51.333 -62 96 -62c43.333 0 75 18.667 95 56c15.333 29.333 23 67.666 23 114.999c0 52.667 -7.33301 96.667 -22 132
c-20 49.333 -52.333 74 -97 74zM221 744.001c75.333 0 127.332 -39.332 155.999 -117.999c18.667 -51.333 28 -123 28 -215c0 -124.667 -6.66699 -212.667 -20 -264c-28 -107.333 -86.667 -161 -176 -161c-46.667 0 -84.167 14.833 -112.5 44.5s-42.5 69.167 -42.5 118.5h60
c0 -34.667 8.5 -61.5 25.5 -80.5s42.833 -28.5 77.5 -28.5c27.333 0 51 12.667 71 38c16 20.667 27.667 46.334 35 77.001c11.333 49.333 17 107.666 17 174.999c-17.333 -23.333 -36.166 -41 -56.499 -53s-44.5 -18 -72.5 -18c-60.667 0 -106 26.667 -136 80
c-23.333 41.333 -35 92.666 -35 153.999c0 64.667 11.333 118.667 34 162c31.333 59.333 80.333 89 147 89z" />
    <glyph glyph-name="colon" unicode=":" horiz-adv-x="222" 
d="M146 433h-69v88h69v-88zM146 0h-69v88h69v-88z" />
    <glyph glyph-name="semicolon" unicode=";" horiz-adv-x="222" 
d="M77 -136l0.00292969 37c11.333 4.66699 19.166 12.5 23.499 23.5s6.5 31.833 6.5 62.5v13h-30v88h69v-56c0 -7.33301 -0.333008 -19 -1 -35s-1 -28 -1 -36c-2.66699 -30 -8.83398 -52.167 -18.501 -66.5s-25.834 -24.5 -48.501 -30.5zM77.0029 433v88h69v-88h-69z" />
    <glyph glyph-name="less" unicode="&#x3c;" 
d="M19 223v44l407 234v-56l-353 -195v-5l353 -201v-56z" />
    <glyph glyph-name="equal" unicode="=" 
d="M424 360v-51h-403v51h403zM424 182v-51h-403v51h403z" />
    <glyph glyph-name="greater" unicode="&#x3e;" 
d="M426 267v-44l-407 -234v56l353 195v5l-353 201v56z" />
    <glyph glyph-name="question" unicode="?" horiz-adv-x="389" 
d="M203 171l-55.999 0.00195312c0 47.333 5.5 86.666 16.5 117.999s31.167 66.666 60.5 105.999c26 34 43.667 60.667 53 80c14.667 30 22 61 22 93c0 38 -8.83301 68.667 -26.5 92s-42.834 35 -75.501 35c-46 0 -77.667 -15.667 -95 -47c-13.333 -24 -20 -61.333 -20 -112
h-62c0 58 10.333 104.667 31 140c28.667 49.333 75.667 74 141 74c48 0 87 -14 117 -42c34.667 -32 52 -77.333 52 -136c0 -34 -5.33301 -64.333 -16 -91c-12.667 -32 -36.667 -70.333 -72 -115c-28.667 -36.667 -47.5 -67 -56.5 -91s-13.5 -58.667 -13.5 -104z
M211.001 0.00195312h-70v88h70v-88z" />
    <glyph glyph-name="at" unicode="@" horiz-adv-x="800" 
d="M431 564c-51.333 0 -97.999 -29.999 -139.999 -89.999c-38.667 -55.333 -58 -109.333 -58 -162c0 -36.667 9.5 -65.834 28.5 -87.501s42.833 -32.5 71.5 -32.5c33.333 0 62.666 9 87.999 27c22 15.333 37 35.333 45 60l53 158c4 12 6 24 6 36
c0 26 -8.33301 47.667 -25 65s-39.667 26 -69 26zM549.001 541.001l15.0029 49.0029h55l-105 -314c-3.33301 -10.667 -6.33301 -20.834 -9 -30.501s-4 -18.5 -4 -26.5c0 -11.333 3 -20.333 9 -27s17 -10 33 -10c21.333 0 45.333 11 72 33c21.333 17.333 40 37.666 56 60.999
c12.667 17.333 24.667 43 36 77s17 64.667 17 92c0 81.333 -31.333 148.333 -94 201c-59.333 50 -130 75 -212 75c-95.333 0 -176.166 -34.5 -242.499 -103.5s-99.5 -151.167 -99.5 -246.5c0 -93.333 33.833 -173.5 101.5 -240.5s148.5 -100.5 242.5 -100.5
c53.333 0 105.666 13 156.999 39s93.666 61.667 126.999 107h53c-32 -59.333 -79 -106.5 -141 -141.5s-127.333 -52.5 -196 -52.5c-111.333 0 -204.833 38.5 -280.5 115.5s-113.5 170.833 -113.5 281.5c0 108 38.667 200 116 276s170.333 114 279 114
c93.333 0 174.666 -30 243.999 -90c72.667 -62.667 109 -142.334 109 -239.001c0 -32.667 -6 -66.667 -18 -102s-26 -64.333 -42 -87c-24 -33.333 -50 -59.666 -78 -78.999c-33.333 -22.667 -68 -34 -104 -34c-20.667 0 -38.334 4.33301 -53.001 13
c-17.333 10.667 -26 25.667 -26 45c-19.333 -17.333 -40.5 -30 -63.5 -38s-46.5 -12 -70.5 -12c-42.667 0 -76 14.667 -100 44s-36 66 -36 110c0 76 22.333 145 67 207c49.333 68.667 110 103 182 103c26 0 49.5 -5.83301 70.5 -17.5s36.5 -28.834 46.5 -51.501z" />
    <glyph glyph-name="A" unicode="A" horiz-adv-x="500" 
d="M150 289h200l-99 379zM213 750h75l201 -750h-66l-59 231h-228l-61 -231h-63z" />
    <glyph glyph-name="B" unicode="B" horiz-adv-x="500" 
d="M195 364l-68 0.000976562v-306h81c62 0 106.667 10.333 134 31c31.333 24 47 66.667 47 128s-18.667 102.666 -56 123.999c-26.667 15.333 -72.667 23 -138 23zM127 422.001h67.001c59.333 0 101.666 8.66699 126.999 26c31.333 21.333 47 60.333 47 117
c0 53.333 -17.667 89.333 -53 108c-24.667 12.667 -67 19 -127 19h-61v-270zM165.001 0.000976562l-103 -0.000976562v750h164c31.333 0 59.666 -2.66699 84.999 -8s47.5 -16.5 66.5 -33.5s33 -37.5 42 -61.5s13.5 -50.667 13.5 -80c0 -40 -7.66699 -74.333 -23 -103
c-17.333 -32 -43.666 -54.667 -78.999 -68c42 -11.333 73 -32.666 93 -63.999s30 -70 30 -116c0 -87.333 -27.667 -147 -83 -179c-42 -24.667 -110.667 -37 -206 -37z" />
    <glyph glyph-name="C" unicode="C" horiz-adv-x="556" 
d="M427 254l64.999 0.00195312c0 -72.667 -16.333 -134 -49 -184c-38.667 -58.667 -93 -88 -163 -88c-66 0 -116.667 24 -152 72c-28 38 -46.667 92.667 -56 164c-6 45.333 -9 104.666 -9 177.999c0 66.667 4 121.334 12 164.001c12 62.667 32.333 111 61 145
c36 42 84.667 63 146 63c65.333 0 116.333 -23 153 -69c34 -42.667 51 -97.667 51 -165h-65c0 49.333 -10.667 89.666 -32 120.999c-25.333 36.667 -61.666 55 -108.999 55c-68 0 -113 -42 -135 -126c-11.333 -43.333 -17 -111 -17 -203c0 -100 5.66699 -171 17 -213
c22.667 -85.333 70 -128 142 -128c50.667 0 88 24 112 72c18.667 37.333 28 84.666 28 141.999z" />
    <glyph glyph-name="D" unicode="D" horiz-adv-x="556" 
d="M137 692l-0.000976562 -634h78h14c27.333 0 47.833 1.16699 61.5 3.5s26.834 6.5 39.501 12.5c43.333 20 73.333 64.667 90 134c10 42 15 98 15 168c0 75.333 -3.66699 130.333 -11 165c-14 65.333 -42.667 110 -86 134c-12 6.66699 -27.5 11.167 -46.5 13.5
s-39.833 3.5 -62.5 3.5h-36h-56zM71.999 0l0.000976562 750.002h134c54 0 94 -3.33301 120 -10c40 -10 74 -30.333 102 -61c23.333 -28 41.666 -67.333 54.999 -118c11.333 -42.667 17 -85.667 17 -129v-33c0 -54 -1.66699 -100.333 -5 -139s-11.333 -74.334 -24 -107.001
c-21.333 -60.667 -53.333 -102.334 -96 -125.001c-34.667 -18.667 -86.667 -28 -156 -28h-147z" />
    <glyph glyph-name="E" unicode="E" 
d="M412 0h-345v750h340v-58h-275v-270h250v-58h-250v-306h280v-58z" />
    <glyph glyph-name="F" unicode="F" 
d="M134 0h-65v750h345v-58h-280v-270h250v-58h-250v-364z" />
    <glyph glyph-name="G" unicode="G" horiz-adv-x="556" 
d="M418 314l-161.001 0.000976562v58h226v-372h-52l-7 77c-37.333 -63.333 -92 -95 -164 -95c-64 0 -113.667 24 -149 72c-28 38 -46.667 92 -56 162c-6 43.333 -9 101.333 -9 174c0 73.333 3.33301 129.666 10 168.999c10.667 64 30.667 113 60 147c36 41.333 87 62 153 62
c60.667 0 109.667 -21.667 147 -65s56 -96 56 -158h-62c-6.66699 48.667 -19 86.334 -37 113.001c-23.333 34.667 -57.333 52 -102 52c-71.333 0 -118.666 -43 -141.999 -129c-12 -44 -18 -112.667 -18 -206c0 -88.667 6.66699 -157.334 20 -206.001
c24 -86 68.667 -129 134 -129c62.667 0 106 32.333 130 97c15.333 41.333 23 100.333 23 177z" />
    <glyph glyph-name="H" unicode="H" horiz-adv-x="556" 
d="M133 0h-65v750h65v-319h290v319h65v-750h-65v373h-290v-373z" />
    <glyph glyph-name="I" unicode="I" horiz-adv-x="222" 
d="M144 0h-65v750h65v-750z" />
    <glyph glyph-name="J" unicode="J" horiz-adv-x="389" 
d="M12 219h65v-16c0 -53.333 3.66699 -90 11 -110c12.667 -35.333 39.667 -53 81 -53c26.667 0 47 8.16699 61 24.5s21 49.5 21 99.5v586h65v-590c0 -56 -11 -98.667 -33 -128c-25.333 -33.333 -65.333 -50 -120 -50c-52 0 -91 18.667 -117 56
c-22.667 32.667 -34 75.667 -34 129v52z" />
    <glyph glyph-name="K" unicode="K" horiz-adv-x="500" 
d="M132 0h-65v750h65v-375l273 375h75l-222 -303l233 -447h-70l-205 394l-84 -110v-284z" />
    <glyph glyph-name="L" unicode="L" 
d="M417 0h-343v750h65v-692h278v-58z" />
    <glyph glyph-name="M" unicode="M" horiz-adv-x="722" 
d="M138 0h-65v750h109l178 -654l184 654h106v-750h-65v685l-188 -685h-69l-188 685z" />
    <glyph glyph-name="N" unicode="N" horiz-adv-x="556" 
d="M147 750l276 -644l2 644h65v-750h-79l-278 642l-2 -642h-65v750h81z" />
    <glyph glyph-name="O" unicode="O" horiz-adv-x="556" 
d="M276 -18c-66.667 0 -117.667 24.001 -153 72.001c-28.667 38.667 -47.667 93.334 -57 164.001c-5.33301 40 -8 99.333 -8 178c0 67.333 4 122 12 164c12 62 32.667 110.333 62 145c36 42 84.667 63 146 63c68 0 119.667 -23 155 -69c28 -36.667 47 -90.334 57 -161.001
c6 -43.333 9 -103 9 -179c0 -74.667 -3.33301 -131.334 -10 -170.001c-10.667 -64 -30.667 -112.667 -60 -146c-35.333 -40.667 -86.333 -61 -153 -61zM282 40.001c53.333 0 92 24.833 116 74.5s36 136.167 36 259.5c0 94 -6.33301 163.667 -19 209
c-24 84.667 -70.667 127 -140 127c-64.667 0 -108.667 -41.333 -132 -124c-13.333 -48 -20 -116.333 -20 -205c0 -100 5.66699 -171 17 -213c22.667 -85.333 70 -128 142 -128z" />
    <glyph glyph-name="P" unicode="P" horiz-adv-x="500" 
d="M141 0h-64.999v750h133c88.667 0 152 -13.333 190 -40c42 -29.333 63 -81.333 63 -156c0 -36.667 -4.83301 -68.667 -14.5 -96s-25 -49.833 -46 -67.5s-50.167 -31.167 -87.5 -40.5c-28.667 -7.33301 -53.334 -11 -74.001 -11h-99v-339zM141.001 692v-295h56
c67.333 0 115 8.33301 143 25c38 22.667 57 64.667 57 126c0 54 -14 92.333 -42 115c-24 19.333 -63.667 29 -119 29h-95z" />
    <glyph glyph-name="Q" unicode="Q" horiz-adv-x="556" 
d="M359 66l-76.001 61l36 45l76 -62c18 32 29.667 76.667 35 134c2.66699 28.667 4 72 4 130c0 94 -6.33301 163.667 -19 209c-24 84.667 -70.667 127 -140 127c-64.667 0 -108.667 -41.333 -132 -124c-13.333 -48 -20 -116.333 -20 -205c0 -100 5.66699 -171 17 -213
c22.667 -85.333 70 -128 142 -128c30.667 0 56.334 8.66699 77.001 26zM444.999 69l82 -66.998l-35 -44l-83 68c-15.333 -14 -34 -24.833 -56 -32.5s-47.667 -11.5 -77 -11.5c-66.667 0 -117.667 23.667 -153 71c-28.667 38 -47.667 92.667 -57 164
c-5.33301 39.333 -8 98.666 -8 177.999c0 68 4 123 12 165c12 62 32.667 110.333 62 145c36 42 84.667 63 146 63c68 0 119.667 -23 155 -69c28 -36.667 47 -90.334 57 -161.001c6 -43.333 9 -103 9 -179c0 -63.333 -2.66699 -114 -8 -152
c-8 -56.667 -23.333 -102.667 -46 -138z" />
    <glyph glyph-name="R" unicode="R" horiz-adv-x="500" 
d="M195 353l-67.002 0.000976562v-353h-65v750h145c74.667 0 130.334 -13 167.001 -39c42.667 -30.667 64 -81.667 64 -153c0 -41.333 -8.33301 -77.666 -25 -108.999c-19.333 -36.667 -47.666 -59 -84.999 -67c40 -10.667 67.333 -32.667 82 -66
c12 -26.667 18 -66.334 18 -119.001c0 -46 1 -79.333 3 -100c4.66699 -50 15 -79.333 31 -88v-9h-71c-12 26.667 -20 64 -24 112s-6 92.667 -6 134c0 45.333 -17 75.666 -51 90.999c-23.333 10.667 -62 16 -116 16zM127.998 692.001v-281h114c28 0 52.667 6.66699 74 20
c38.667 24 58 64.667 58 122c0 53.333 -11.833 89.833 -35.5 109.5s-62.5 29.5 -116.5 29.5h-94z" />
    <glyph glyph-name="S" unicode="S" horiz-adv-x="500" 
d="M211 433l57.9961 -24c68.667 -28.667 114.334 -53.334 137.001 -74.001c36.667 -33.333 55 -80.666 55 -141.999c0 -64.667 -19.333 -116 -58 -154s-91 -57 -157 -57s-116.833 21.167 -152.5 63.5s-53.5 97.833 -53.5 166.5h64c0 -52 10.333 -92.333 31 -121
c24 -34 60.667 -51 110 -51c46 0 82.667 13.333 110 40s41 63.667 41 111c0 50 -17 87.333 -51 112c-13.333 10 -52.333 27.667 -117 53c-58 22.667 -99.333 46.667 -124 72c-32.667 33.333 -49 77.666 -49 132.999c0 62 17.333 112 52 150s82.334 57 143.001 57
c58 0 104.333 -18.333 139 -55s52 -84.667 52 -144h-63c0 42.667 -11.167 76.834 -33.5 102.501s-54.166 38.5 -95.499 38.5s-73.166 -13.5 -95.499 -40.5s-33.5 -61.833 -33.5 -104.5c0 -36.667 6.5 -64 19.5 -82s36.833 -34.667 71.5 -50z" />
    <glyph glyph-name="T" unicode="T" 
d="M190 692h-170v58h405v-58h-170v-692h-65v692z" />
    <glyph glyph-name="U" unicode="U" horiz-adv-x="556" 
d="M73 198l0.00195312 551.999h65v-544c0 -57.333 8.66699 -98.333 26 -123c20 -28.667 57 -43 111 -43c54.667 0 93 16 115 48c18.667 26.667 28 68 28 124v538h65v-522c0 -80 -14 -139.333 -42 -178c-32.667 -45.333 -87.334 -68 -164.001 -68
c-70.667 0 -122.334 18.333 -155.001 55s-49 90.334 -49 161.001z" />
    <glyph glyph-name="V" unicode="V" horiz-adv-x="500" 
d="M215 0l-201 750h68l168 -665l174 665h63l-199 -750h-73z" />
    <glyph glyph-name="W" unicode="W" horiz-adv-x="722" 
d="M397 750l123 -636l122 636h63l-148 -750h-73l-125 642l-124 -642h-73l-145 750h66l114 -633l125 633h75z" />
    <glyph glyph-name="X" unicode="X" horiz-adv-x="500" 
d="M211 387l-184 363h73l149 -301l153 301h72l-186 -363l194 -387h-71l-162 326l-161 -326h-70z" />
    <glyph glyph-name="Y" unicode="Y" horiz-adv-x="500" 
d="M249 393l165 357h68l-200 -431v-319h-65v319l-198 431h72z" />
    <glyph glyph-name="Z" unicode="Z" 
d="M411 0h-377v60l307 632h-293v58h363v-56l-309 -636h309v-58z" />
    <glyph glyph-name="bracketleft" unicode="[" horiz-adv-x="278" 
d="M229 -58v-46h-155v872h153v-46h-95v-780h97z" />
    <glyph glyph-name="backslash" unicode="\" horiz-adv-x="222" 
d="M208 0l-248 750h54l248 -750h-54z" />
    <glyph glyph-name="bracketright" unicode="]" horiz-adv-x="278" 
d="M204 -104h-155v46h97v780h-95v46h153v-872z" />
    <glyph glyph-name="asciicircum" unicode="^" 
d="M201 750h41l135 -410h-47l-110 335l-107 -335h-47z" />
    <glyph glyph-name="underscore" unicode="_" horiz-adv-x="500" 
d="M500 -119h-500v58h500v-58z" />
    <glyph glyph-name="grave" unicode="`" horiz-adv-x="333" 
d="M229 606h-51l-138 139h78z" />
    <glyph glyph-name="a" unicode="a" horiz-adv-x="389" 
d="M271 201l-0.000976562 97.001c-18.667 -10 -42.334 -20.833 -71.001 -32.5s-43.334 -17.834 -44.001 -18.501c-29.333 -12.667 -48.666 -26.5 -57.999 -41.5s-14 -39.167 -14 -72.5c0 -29.333 5.83301 -52.666 17.5 -69.999s31.5 -26 59.5 -26
c18.667 0 34.834 3.5 48.501 10.5s25.334 17.833 35.001 32.5s16.5 32.167 20.5 52.5s6 43.166 6 68.499zM96.999 413.001l-56.002 0.00292969c0 49.333 12.5 87.166 37.5 113.499s61.5 39.5 109.5 39.5c24.667 0 46.834 -3.33301 66.501 -10s35.334 -17.334 47.001 -32.001
s19.167 -30.167 22.5 -46.5s5 -36.833 5 -61.5v-339c0 -16.667 2.33301 -27 7 -31s15.667 -6 33 -6v-42c-5.33301 -2.66699 -10.666 -4.33398 -15.999 -5.00098s-12 -1 -20 -1c-9.33301 0 -18.666 1 -27.999 3c-12.667 4.66699 -21 13 -25 25
c-0.666992 2 -2.66699 10.333 -6 25c-14.667 -19.333 -32.667 -34 -54 -44s-44.333 -15 -69 -15c-46.667 0 -80 15 -100 45c-16.667 25.333 -25 62.333 -25 111c0 34 5.66699 62.5 17 85.5s31 41.833 59 56.5c12.667 6 44 18.667 94 38c22.667 8.66699 41.667 16.667 57 24
c8.66699 4 13.667 10.167 15 18.5s2 20.5 2 36.5c0 10.667 -0.166992 20.5 -0.5 29.5s-1.5 18.833 -3.5 29.5c-4.66699 18 -12.834 31.667 -24.501 41s-29.834 14 -54.501 14c-36 0 -60 -10.667 -72 -32c-5.33301 -8.66699 -11.333 -32 -18 -70z" />
    <glyph glyph-name="b" unicode="b" 
d="M229 37c49.333 0 82.666 29.668 99.999 89.001c10 33.333 15 82.666 15 147.999c0 64.667 -4.66699 114 -14 148c-17.333 62 -49.666 93 -96.999 93c-48 0 -80.333 -28.667 -97 -86c-9.33301 -32.667 -14 -80.334 -14 -143.001c0 -69.333 3.66699 -119.666 11 -150.999
c15.333 -65.333 47.333 -98 96 -98zM122 0.000976562h-57.999v750h58v-243c19.333 20 38.833 34.833 58.5 44.5s42.167 14.5 67.5 14.5c61.333 0 104.333 -34.667 129 -104c16.667 -46.667 25 -108 25 -184c0 -80 -8 -142.333 -24 -187c-25.333 -70 -70.333 -105 -135 -105
c-54.667 0 -94.334 22 -119.001 66z" />
    <glyph glyph-name="c" unicode="c" horiz-adv-x="389" 
d="M300 183l58 -0.000976562c0 -57.333 -11 -103 -33 -137c-26 -40 -66 -60 -120 -60c-50 0 -88.333 16 -115 48c-22 26 -37 64 -45 114c-5.33301 33.333 -8 77 -8 131c0 82.667 8.33301 145.334 25 188.001c26 66 73 99 141 99c46.667 0 84 -18 112 -54
c25.333 -32.667 38 -73.667 38 -123h-57c0 35.333 -8.66699 65.166 -26 89.499s-41 36.5 -71 36.5c-47.333 0 -78.333 -30 -93 -90c-7.33301 -30 -11 -82 -11 -156c0 -65.333 4.33301 -113.666 13 -144.999c16 -58 48.667 -87 98 -87c35.333 0 60.333 16.333 75 49
c8 18.667 14.333 51 19 97z" />
    <glyph glyph-name="d" unicode="d" 
d="M213 515c-47.333 0 -79.668 -32 -97.001 -96c-9.33301 -35.333 -14 -86 -14 -152c0 -62 5.33301 -110 16 -144c18 -57.333 50.667 -86 98 -86c44.667 0 75.334 27 92.001 81c10.667 34 16 82.667 16 146v36c0 59.333 -5 104.333 -15 135
c-17.333 53.333 -49.333 80 -96 80zM323.998 750l58 -0.00195312v-750h-58v52c-12.667 -22 -29.167 -38.5 -49.5 -49.5s-44.166 -16.5 -71.499 -16.5c-65.333 0 -110.333 34.667 -135 104c-16 44.667 -24 107.334 -24 188.001c0 78.667 8.33301 140.334 25 185.001
c25.333 68.667 70.666 103 135.999 103c47.333 0 86.333 -19.667 117 -59z" />
    <glyph glyph-name="e" unicode="e" horiz-adv-x="389" 
d="M352 335v-55.998h-259v-34c0 -58.667 5 -103.334 15 -134.001c16 -49.333 45.667 -74 89 -74c37.333 0 63.666 15.333 78.999 46c12 23.333 18 55.666 18 96.999h56c0 -56.667 -11.333 -101.667 -34 -135c-26.667 -39.333 -66.667 -59 -120 -59
c-67.333 0 -113.333 33.667 -138 101c-15.333 42 -23 104.333 -23 187s7.33301 145 22 187c24.667 70 70.334 105 137.001 105c58 0 100.333 -25.333 127 -76c20.667 -39.333 31 -91 31 -155zM93 330.002h201c0 50.667 -5 90 -15 118c-16 44.667 -44.667 67 -86 67
c-39.333 0 -67.333 -22.667 -84 -68c-10.667 -29.333 -16 -68.333 -16 -117z" />
    <glyph glyph-name="f" unicode="f" horiz-adv-x="222" 
d="M77 0l-0.000976562 500.999h-59v51h59v60c0 54.667 7.83301 91.334 23.5 110.001s50.834 28 105.501 28v-51c-31.333 0 -51 -4 -59 -12s-12 -24 -12 -48v-24v-63h69v-51h-69v-501h-58z" />
    <glyph glyph-name="g" unicode="g" 
d="M209 515c-34 0 -60 -20.1689 -78 -60.502s-27 -101.833 -27 -184.5c0 -65.333 4.66699 -113.666 14 -144.999c17.333 -58.667 50.333 -88 99 -88c46 0 77 28.333 93 85c9.33301 32.667 14 79.334 14 140.001v40c0 63.333 -5.33301 110 -16 140
c-17.333 48.667 -50.333 73 -99 73zM324 551.998l57.9971 0.00195312v-540c0 -64.667 -12 -113 -36 -145c-28 -37.333 -73 -56 -135 -56c-43.333 0 -78.666 9.66699 -105.999 29c-31.333 22.667 -47 54.667 -47 96h59c0 -23.333 10 -42 30 -56c17.333 -12 39 -18 65 -18
c52.667 0 86.334 19.667 101.001 59c7.33301 19.333 11 58.666 11 117.999h-4c-14.667 -18.667 -31.667 -32.167 -51 -40.5s-41 -12.5 -65 -12.5c-66 0 -111 33 -135 99c-15.333 42 -23 103.667 -23 185c0 83.333 6.66699 145.666 20 186.999c23.333 72.667 68 109 134 109
c28.667 0 52.334 -5 71.001 -15s35.667 -26.333 51 -49z" />
    <glyph glyph-name="h" unicode="h" 
d="M121 0l-58.001 -0.000976562v750h58v-247c13.333 20.667 30.5 36.334 51.5 47.001s43.833 16 68.5 16c25.333 0 48 -3.5 68 -10.5s36 -19.5 48 -37.5c10.667 -14 17.334 -30.333 20.001 -49s4 -41.667 4 -69v-400h-58v389c0 41.333 -4 70.333 -12 87
c-12.667 26 -37 39 -73 39c-26 0 -49 -7.33301 -69 -22s-36 -34.667 -48 -60v-433z" />
    <glyph glyph-name="i" unicode="i" horiz-adv-x="222" 
d="M140 0h-58v552h58v-552zM145 655h-67v95h67v-95z" />
    <glyph glyph-name="j" unicode="j" horiz-adv-x="222" 
d="M21 -189l-0.000976562 54.002c6.66699 0 13.5 0.5 20.5 1.5s12.5 1.83301 16.5 2.5c16 5.33301 25 16.666 27 33.999s3 31.666 3 42.999v606h58v-608v-15c0 -22.667 -1.66699 -41.167 -5 -55.5s-11.666 -27.833 -24.999 -40.5c-12.667 -8.66699 -26.667 -14.5 -42 -17.5
s-33 -4.5 -53 -4.5zM82.999 750.002h67v-92h-67v92z" />
    <glyph glyph-name="k" unicode="k" horiz-adv-x="389" 
d="M120 0h-58v750h58v-458l179 260h73l-150 -206l153 -346h-61l-133 287l-61 -85v-202z" />
    <glyph glyph-name="l" unicode="l" horiz-adv-x="222" 
d="M140 0h-58v750h58v-750z" />
    <glyph glyph-name="m" unicode="m" horiz-adv-x="667" 
d="M116 421v-420.999h-58v552h58v-49c27.333 42 67 63 119 63c27.333 0 48 -3 62 -9c20.667 -8.66699 38.667 -26.334 54 -53.001c15.333 20.667 34.5 36.167 57.5 46.5s47.833 15.5 74.5 15.5c46.667 0 80 -14 100 -42c18 -24.667 27 -60.667 27 -108v-416h-58v423
c0 26.667 -5.33301 48 -16 64c-12.667 19.333 -32.667 29 -60 29c-34 0 -61.333 -10 -82 -30s-31 -47.667 -31 -83v-403h-58v399c0 48.667 -6.83301 80.167 -20.5 94.5s-34.167 21.5 -61.5 21.5c-24 0 -47.833 -9.83301 -71.5 -29.5s-35.5 -41.167 -35.5 -64.5z" />
    <glyph glyph-name="n" unicode="n" 
d="M123 407v-406.999h-58v552h58v-54c15.333 20.667 33.833 37.167 55.5 49.5s45.5 18.5 71.5 18.5c36.667 0 67.334 -11.667 92.001 -35s37 -54.333 37 -93v-438h-58v401c0 38.667 -4 65.667 -12 81c-11.333 22 -34.333 33 -69 33c-30.667 0 -57.834 -10.333 -81.501 -31
s-35.5 -46.334 -35.5 -77.001z" />
    <glyph glyph-name="o" unicode="o" 
d="M221 -14c-74 0 -123.668 34.332 -149.001 102.999c-15.333 41.333 -23 108 -23 200c0 104 17.333 178 52 222c28.667 36.667 69.667 55 123 55c68.667 0 116.667 -32.667 144 -98c18.667 -44.667 28 -108 28 -190c0 -85.333 -9 -149.666 -27 -192.999
c-27.333 -66 -76.666 -99 -147.999 -99zM219.999 36.999c50.667 0 84.999 29.668 102.999 89.001c10 33.333 15 83.666 15 150.999c0 68.667 -5 119 -15 151c-18 58 -53.333 87 -106 87c-45.333 0 -76.666 -28.333 -93.999 -85c-10.667 -34.667 -16 -82 -16 -142
c0 -75.333 3.66699 -127.333 11 -156c16 -63.333 50 -95 102 -95z" />
    <glyph glyph-name="p" unicode="p" 
d="M116 279c0 -73.333 3.66699 -124 11 -152c16 -60 49.667 -90 101 -90c47.333 0 79 29.667 95 89c8.66699 32 13 80.333 13 145c0 66 -4.33301 116 -13 150c-16 62.667 -47 94 -93 94c-52 0 -86 -28.667 -102 -86c-8 -29.333 -12 -79.333 -12 -150zM118 45v-234.999h-60
v742h58v-50c14 20 30.5 35.667 49.5 47s39.833 17 62.5 17c66.667 0 113 -31 139 -93c18 -43.333 27 -104.333 27 -183c0 -90.667 -6.66699 -156.334 -20 -197.001c-23.333 -71.333 -70.333 -107 -141 -107c-48.667 0 -87 19.667 -115 59z" />
    <glyph glyph-name="q" unicode="q" 
d="M212 37c50.667 0 83.999 29.666 99.999 88.999c8 30 12 80.333 12 151c0 69.333 -3.66699 118.333 -11 147c-15.333 60.667 -47.666 91 -96.999 91s-82.333 -30.667 -99 -92c-8.66699 -32 -13 -82.667 -13 -152c0 -63.333 4.66699 -111.666 14 -144.999
c16.667 -59.333 48 -89 94 -89zM323.999 501.999l-0.00292969 50h58v-741h-60v234c-12.667 -19.333 -29.167 -34 -49.5 -44s-42.166 -15 -65.499 -15c-68.667 0 -115 33 -139 99c-14.667 40 -22 102.667 -22 188c0 86.667 7.66699 150.667 23 192
c25.333 67.333 73 101 143 101c22.667 0 43.334 -5.5 62.001 -16.5s35.334 -26.833 50.001 -47.5z" />
    <glyph glyph-name="r" unicode="r" horiz-adv-x="278" 
d="M124 552v-64.001c15.333 28.667 33 48.834 53 60.501s46.667 17.5 80 17.5v-61c-43.333 0 -75.833 -12.5 -97.5 -37.5s-32.5 -60.167 -32.5 -105.5v-362h-58v552h55z" />
    <glyph glyph-name="s" unicode="s" horiz-adv-x="389" 
d="M44 407c-0.666992 10 -0.998047 17.668 -0.998047 23.001c0 43.333 12.167 76.833 36.5 100.5s59.833 35.5 106.5 35.5c47.333 0 84.166 -13.833 110.499 -41.5s39.5 -65.5 39.5 -113.5h-57c0 30.667 -8.33301 55.667 -25 75s-40 29 -70 29
c-26.667 0 -47 -7.66699 -61 -23s-21 -37 -21 -65c0 -20.667 6.33301 -38.334 19 -53.001c10.667 -12 26.667 -22.333 48 -31c61.333 -28 103.666 -53 126.999 -75c36 -33.333 54 -76.666 54 -129.999c0 -48.667 -13.833 -86.167 -41.5 -112.5s-66.167 -39.5 -115.5 -39.5
c-54 0 -94.333 13.833 -121 41.5s-40 68.5 -40 122.5h59c0 -35.333 8.83301 -63 26.5 -83s44.167 -30 79.5 -30c29.333 0 52.5 9.83301 69.5 29.5s25.5 44.5 25.5 74.5c0 40 -21.333 73.333 -64 100l-120 63c-42.667 27.333 -64 61.666 -64 102.999z" />
    <glyph glyph-name="t" unicode="t" horiz-adv-x="222" 
d="M201 43v-48c-11.333 -2 -22.666 -3.5 -33.999 -4.5s-18 -1.5 -20 -1.5c-8 0 -15 1 -21 3c-24.667 8.66699 -40.834 19.667 -48.501 33s-11.5 34.333 -11.5 63v413h-50v51h50v162h58v-162h77v-51h-77v-407c0 -14 1.83301 -25.667 5.5 -35s11.5 -15 23.5 -17
c4 -2 10.667 -3 20 -3c6.66699 0 16 1.33301 28 4z" />
    <glyph glyph-name="u" unicode="u" 
d="M321 132v420h58v-552h-56v51c-18 -23.333 -38.5 -40 -61.5 -50s-49.5 -15 -79.5 -15c-46.667 0 -79.667 15.333 -99 46c-15.333 24.667 -23 62 -23 112v408h58v-418c0 -35.333 7.33301 -60.333 22 -75s39.667 -22 75 -22c21.333 0 42 9.66699 62 29s34.667 41.333 44 66z
" />
    <glyph glyph-name="v" unicode="v" horiz-adv-x="389" 
d="M79 552l116 -447l119 447h59l-146 -552h-63l-147 552h62z" />
    <glyph glyph-name="w" unicode="w" horiz-adv-x="556" 
d="M310 552l87 -440l91 440h57l-120 -552h-61l-85 433l-87 -433h-64l-117 552h58l90 -440l87 440h64z" />
    <glyph glyph-name="x" unicode="x" horiz-adv-x="389" 
d="M311 0l-118 234l-117 -234h-63l145 289l-135 263h65l105 -213l107 213h67l-138 -263l147 -289h-65z" />
    <glyph glyph-name="y" unicode="y" horiz-adv-x="389" 
d="M28 -188l-0.00195312 51h28c18.667 0 33.667 2 45 6s20.166 13.167 26.499 27.5s12.166 29.833 17.499 46.5s10.333 35 15 55l-143 554h61l114 -447l122 447h59l-150 -545c-13.333 -52 -23 -85.667 -29 -101c-15.333 -40.667 -34.666 -68.334 -57.999 -83.001
c-8.66699 -4.66699 -18.167 -8.16699 -28.5 -10.5s-20.166 -3.5 -29.499 -3.5s-18.166 0.333008 -26.499 1s-16.166 1.33398 -23.499 2.00098z" />
    <glyph glyph-name="z" unicode="z" horiz-adv-x="333" 
d="M315 0h-297v55l231 446h-219v51h280v-54l-229 -447h234v-51z" />
    <glyph glyph-name="braceleft" unicode="{" horiz-adv-x="351" 
d="M130 450l0.000976562 168.002c0 56 10.333 95 31 117s59.334 33 116.001 33c-31.333 -14.667 -52.5 -30.334 -63.5 -47.001s-16.5 -39 -16.5 -67v-177c0 -38.667 -5 -67.334 -15 -86.001c-12.667 -24 -37.667 -41.667 -75 -53c35.333 -7.33301 59.666 -21.333 72.999 -42
c11.333 -18 17 -46.333 17 -85v-190c0 -27.333 4.66699 -48.333 14 -63c12 -18.667 34 -35 66 -49c-11.333 -0.666992 -20 -1 -26 -1c-15.333 0 -29.833 1.83301 -43.5 5.5s-26.834 10.167 -39.501 19.5c-15.333 11.333 -25.5 25.666 -30.5 42.999s-7.5 38.666 -7.5 63.999
v189v11c0 15.333 -1.16699 27.166 -3.5 35.499s-8 18 -17 29s-18.333 19 -28 24s-20.834 7.5 -33.501 7.5c24.667 8.66699 42.334 17.334 53.001 26.001c14 10.667 22.333 21.834 25 33.501s4 29.834 4 54.501z" />
    <glyph glyph-name="bar" unicode="|" horiz-adv-x="222" 
d="M85 0v750h52v-750h-52z" />
    <glyph glyph-name="braceright" unicode="}" horiz-adv-x="351" 
d="M221 635l-0.000976562 -188.998c0 -20 1 -34.667 3 -44s7.66699 -19.666 17 -30.999s18.833 -19.5 28.5 -24.5s20.834 -7.5 33.501 -7.5c-24.667 -8.66699 -43.167 -17.834 -55.5 -27.501s-19.833 -20.334 -22.5 -32.001s-4 -29.834 -4 -54.501v-168
c0 -56 -10.333 -95 -31 -117s-59.334 -33 -116.001 -33c31.333 14.667 53 31 65 49c10 15.333 15 37 15 65v177c0 38.667 5 67.334 15 86.001c12.667 24 37.667 41.667 75 53c-35.333 7.33301 -59.166 20.666 -71.499 39.999s-18.5 48.333 -18.5 87v190
c0 27.333 -4.66699 48.333 -14 63c-12 18.667 -34 35 -66 49c11.333 0.666992 20 1 26 1c15.333 0 29.833 -1.83301 43.5 -5.5s27.5 -10.667 41.5 -21s24 -25.833 30 -46.5c4 -14 6 -33.667 6 -59z" />
    <glyph glyph-name="asciitilde" unicode="~" 
d="M54 179l-33 35c20.667 34 39.667 56.833 57 68.5s36.333 17.5 57 17.5c12.667 0 28 -2.66699 46 -8c12 -3.33301 29.5 -9.83301 52.5 -19.5s36.5 -15.167 40.5 -16.5c14.667 -5.33301 27 -8 37 -8c16 0 31.667 6.66699 47 20c11.333 10 22.333 23.667 33 41l33 -34
c-14.667 -24 -29.667 -42.333 -45 -55c-20.667 -17.333 -43.334 -26 -68.001 -26c-15.333 0 -38.333 5.66699 -69 17l-39.5 14.5l-36.5 13.5c-11.333 4 -21.666 6 -30.999 6c-22 0 -41.333 -10.333 -58 -31c-4 -5.33301 -11.667 -17 -23 -35z" />
    <glyph glyph-name="c128" horiz-adv-x="648" 
d="M525 164l-0.000976562 140.999c0 76 -34 114 -102 114c-30 0 -60.333 -6 -91 -18c-26.667 -10 -52.334 -24 -77.001 -42v-359h-65v692h-170v58h405v-58h-170v-275c26.667 17.333 52.334 30.333 77.001 39c34.667 12.667 70.334 19 107.001 19
c42 0 77.667 -14.667 107 -44s44 -66.666 44 -111.999v-159c0 -54 -14.833 -97.167 -44.5 -129.5s-72.5 -48.5 -128.5 -48.5h-27v58h27c36 0 63.667 13.333 83 40c16.667 22.667 25 50.667 25 84z" />
    <glyph glyph-name="c128" unicode="&#x402;" horiz-adv-x="648" 
d="M525 164l-0.000976562 140.999c0 76 -34 114 -102 114c-30 0 -60.333 -6 -91 -18c-26.667 -10 -52.334 -24 -77.001 -42v-359h-65v692h-170v58h405v-58h-170v-275c26.667 17.333 52.334 30.333 77.001 39c34.667 12.667 70.334 19 107.001 19
c42 0 77.667 -14.667 107 -44s44 -66.666 44 -111.999v-159c0 -54 -14.833 -97.167 -44.5 -129.5s-72.5 -48.5 -128.5 -48.5h-27v58h27c36 0 63.667 13.333 83 40c16.667 22.667 25 50.667 25 84z" />
    <glyph glyph-name="c129" 
d="M134 0h-65v750h345v-58h-280v-692zM211 804h-51l111 139h78z" />
    <glyph glyph-name="c129" unicode="&#x403;" 
d="M134 0h-65v750h345v-58h-280v-692zM211 804h-51l111 139h78z" />
    <glyph glyph-name="c141" horiz-adv-x="500" 
d="M132 0h-65v750h65v-375l273 375h75l-222 -303l233 -447h-70l-205 394l-84 -110v-284zM239 804h-51l111 139h78z" />
    <glyph glyph-name="c141" unicode="&#x40c;" horiz-adv-x="500" 
d="M132 0h-65v750h65v-375l273 375h75l-222 -303l233 -447h-70l-205 394l-84 -110v-284zM239 804h-51l111 139h78z" />
    <glyph glyph-name="c142" horiz-adv-x="648" 
d="M255 359l-0.000976562 -359.001h-65v692h-170v58h405v-58h-170v-275c26.667 17.333 52.334 30.333 77.001 39c34.667 12.667 70.334 19 107.001 19c42 0 77.667 -14.667 107 -44s44 -66.666 44 -111.999v-319h-65v305c0 76 -34 114 -102 114c-30 0 -60.333 -6 -91 -18
c-26.667 -10 -52.334 -24 -77.001 -42z" />
    <glyph glyph-name="c142" unicode="&#x40b;" horiz-adv-x="648" 
d="M255 359l-0.000976562 -359.001h-65v692h-170v58h405v-58h-170v-275c26.667 17.333 52.334 30.333 77.001 39c34.667 12.667 70.334 19 107.001 19c42 0 77.667 -14.667 107 -44s44 -66.666 44 -111.999v-319h-65v305c0 76 -34 114 -102 114c-30 0 -60.333 -6 -91 -18
c-26.667 -10 -52.334 -24 -77.001 -42z" />
    <glyph glyph-name="c143" horiz-adv-x="556" 
d="M246 0h-178v750h65v-692h290v692h65v-750h-177v-108h-65v108z" />
    <glyph glyph-name="c143" unicode="&#x40f;" horiz-adv-x="556" 
d="M246 0h-178v750h65v-692h290v692h65v-750h-177v-108h-65v108z" />
    <glyph glyph-name="c144" 
d="M381 -56l-0.00195312 -14.999c0 -22.667 -1.66699 -41.167 -5 -55.5s-11.666 -27.833 -24.999 -40.5c-12.667 -8.66699 -26.667 -14.5 -42 -17.5s-33 -4.5 -53 -4.5v54c6.66699 0 13.5 0.5 20.5 1.5s12.5 1.83301 16.5 2.5c16 5.33301 25 16.666 27 33.999
s3 31.666 3 42.999v335c0 41.333 -4 70.333 -12 87c-12.667 26 -37 39 -73 39c-26 0 -49 -7.33301 -69 -22s-36 -34.667 -48 -60v-325h-58v501h-50v51h50v198h58v-198h154v-51h-154v-106c13.333 20.667 30.5 36.334 51.5 47.001s43.833 16 68.5 16
c25.333 0 48 -3.5 68 -10.5s36 -19.5 48 -37.5c10.667 -14 17.334 -30.333 20.001 -49s4 -41.667 4 -69v-348z" />
    <glyph glyph-name="c144" unicode="&#x452;" 
d="M381 -56l-0.00195312 -14.999c0 -22.667 -1.66699 -41.167 -5 -55.5s-11.666 -27.833 -24.999 -40.5c-12.667 -8.66699 -26.667 -14.5 -42 -17.5s-33 -4.5 -53 -4.5v54c6.66699 0 13.5 0.5 20.5 1.5s12.5 1.83301 16.5 2.5c16 5.33301 25 16.666 27 33.999
s3 31.666 3 42.999v335c0 41.333 -4 70.333 -12 87c-12.667 26 -37 39 -73 39c-26 0 -49 -7.33301 -69 -22s-36 -34.667 -48 -60v-325h-58v501h-50v51h50v198h58v-198h154v-51h-154v-106c13.333 20.667 30.5 36.334 51.5 47.001s43.833 16 68.5 16
c25.333 0 48 -3.5 68 -10.5s36 -19.5 48 -37.5c10.667 -14 17.334 -30.333 20.001 -49s4 -41.667 4 -69v-348z" />
    <glyph glyph-name="c157" horiz-adv-x="389" 
d="M120 0h-58v552h58v-260l179 260h73l-150 -206l153 -346h-61l-133 287l-61 -85v-202zM183 606h-51l111 139h78z" />
    <glyph glyph-name="c157" unicode="&#x45c;" horiz-adv-x="389" 
d="M120 0h-58v552h58v-260l179 260h73l-150 -206l153 -346h-61l-133 287l-61 -85v-202zM183 606h-51l111 139h78z" />
    <glyph glyph-name="c158" 
d="M121 501l-0.000976562 -106.001c13.333 20.667 30.5 36.334 51.5 47.001s43.833 16 68.5 16c25.333 0 48 -3.5 68 -10.5s36 -19.5 48 -37.5c10.667 -14 17.334 -30.333 20.001 -49s4 -41.667 4 -69v-292h-58v281c0 41.333 -4 70.333 -12 87c-12.667 26 -37 39 -73 39
c-26 0 -49 -7.33301 -69 -22s-36 -34.667 -48 -60v-325h-58v501h-50v51h50v198h58v-198h154v-51h-154z" />
    <glyph glyph-name="c158" unicode="&#x45b;" 
d="M121 501l-0.000976562 -106.001c13.333 20.667 30.5 36.334 51.5 47.001s43.833 16 68.5 16c25.333 0 48 -3.5 68 -10.5s36 -19.5 48 -37.5c10.667 -14 17.334 -30.333 20.001 -49s4 -41.667 4 -69v-292h-58v281c0 41.333 -4 70.333 -12 87c-12.667 26 -37 39 -73 39
c-26 0 -49 -7.33301 -69 -22s-36 -34.667 -48 -60v-325h-58v501h-50v51h50v198h58v-198h154v-51h-154z" />
    <glyph glyph-name="nonbreakingspace" unicode="&#xa0;" horiz-adv-x="500" 
 />
    <glyph glyph-name="exclamdown" unicode="&#xa1;" horiz-adv-x="500" 
d="M242 193l-232.999 557h72l190 -473l153 473h68l-213 -629c-14.667 -43.333 -30 -75.333 -46 -96c-22.667 -28.667 -51.334 -43 -86.001 -43l-49 3v61l37 -2c15.333 0 28.833 4.5 40.5 13.5s22.5 25.833 32.5 50.5zM108.001 917l39.999 0.000976562
c4.66699 -26.667 16.334 -46.834 35.001 -60.501s42 -20.5 70 -20.5s51.333 6.83301 70 20.5s30.667 33.834 36 60.501h37c-4 -40.667 -19.167 -71.834 -45.5 -93.501s-60.5 -32.5 -102.5 -32.5c-40 0 -72.333 11 -97 33s-39 53 -43 93z" />
    <glyph glyph-name="exclamdown" unicode="&#x40e;" horiz-adv-x="500" 
d="M242 193l-232.999 557h72l190 -473l153 473h68l-213 -629c-14.667 -43.333 -30 -75.333 -46 -96c-22.667 -28.667 -51.334 -43 -86.001 -43l-49 3v61l37 -2c15.333 0 28.833 4.5 40.5 13.5s22.5 25.833 32.5 50.5zM108.001 917l39.999 0.000976562
c4.66699 -26.667 16.334 -46.834 35.001 -60.501s42 -20.5 70 -20.5s51.333 6.83301 70 20.5s30.667 33.834 36 60.501h37c-4 -40.667 -19.167 -71.834 -45.5 -93.501s-60.5 -32.5 -102.5 -32.5c-40 0 -72.333 11 -97 33s-39 53 -43 93z" />
    <glyph glyph-name="cent" unicode="&#xa2;" horiz-adv-x="389" 
d="M28 -188l-0.00195312 51h28c18.667 0 33.667 2 45 6s20.166 13.167 26.499 27.5s12.166 29.833 17.499 46.5s10.333 35 15 55l-143 554h61l114 -447l122 447h59l-150 -545c-13.333 -52 -23 -85.667 -29 -101c-15.333 -40.667 -34.666 -68.334 -57.999 -83.001
c-8.66699 -4.66699 -18.167 -8.16699 -28.5 -10.5s-20.166 -3.5 -29.499 -3.5s-18.166 0.333008 -26.499 1s-16.166 1.33398 -23.499 2.00098zM52.998 738l39.999 0.000976562c4.66699 -26.667 16.334 -46.834 35.001 -60.501s42 -20.5 70 -20.5s51.333 6.83301 70 20.5
s30.667 33.834 36 60.501h37c-4 -40.667 -19.167 -71.834 -45.5 -93.501s-60.5 -32.5 -102.5 -32.5c-40 0 -72.333 11 -97 33s-39 53 -43 93z" />
    <glyph glyph-name="cent" unicode="&#x45e;" horiz-adv-x="389" 
d="M28 -188l-0.00195312 51h28c18.667 0 33.667 2 45 6s20.166 13.167 26.499 27.5s12.166 29.833 17.499 46.5s10.333 35 15 55l-143 554h61l114 -447l122 447h59l-150 -545c-13.333 -52 -23 -85.667 -29 -101c-15.333 -40.667 -34.666 -68.334 -57.999 -83.001
c-8.66699 -4.66699 -18.167 -8.16699 -28.5 -10.5s-20.166 -3.5 -29.499 -3.5s-18.166 0.333008 -26.499 1s-16.166 1.33398 -23.499 2.00098zM52.998 738l39.999 0.000976562c4.66699 -26.667 16.334 -46.834 35.001 -60.501s42 -20.5 70 -20.5s51.333 6.83301 70 20.5
s30.667 33.834 36 60.501h37c-4 -40.667 -19.167 -71.834 -45.5 -93.501s-60.5 -32.5 -102.5 -32.5c-40 0 -72.333 11 -97 33s-39 53 -43 93z" />
    <glyph glyph-name="sterling" unicode="&#xa3;" horiz-adv-x="389" 
d="M12 219h65v-16c0 -53.333 3.66699 -90 11 -110c12.667 -35.333 39.667 -53 81 -53c26.667 0 47 8.16699 61 24.5s21 49.5 21 99.5v586h65v-590c0 -56 -11 -98.667 -33 -128c-25.333 -33.333 -65.333 -50 -120 -50c-52 0 -91 18.667 -117 56
c-22.667 32.667 -34 75.667 -34 129v52z" />
    <glyph glyph-name="sterling" unicode="&#x408;" horiz-adv-x="389" 
d="M12 219h65v-16c0 -53.333 3.66699 -90 11 -110c12.667 -35.333 39.667 -53 81 -53c26.667 0 47 8.16699 61 24.5s21 49.5 21 99.5v586h65v-590c0 -56 -11 -98.667 -33 -128c-25.333 -33.333 -65.333 -50 -120 -50c-52 0 -91 18.667 -117 56
c-22.667 32.667 -34 75.667 -34 129v52z" />
    <glyph glyph-name="currency" unicode="&#xa4;" 
d="M1 104l38.999 38.001c-28.667 41.333 -43 85.666 -43 132.999c0 50.667 14.333 96 43 136l-39 39l47 47l40 -38c39.333 29.333 85.333 44 138 44c45.333 0 89.333 -14.667 132 -44l39 38l47 -47l-39 -39c28.667 -40.667 43 -87.334 43 -140.001c0 -24 -3.5 -46 -10.5 -66
s-17.833 -41 -32.5 -63l39 -38l-47 -48l-39 39c-41.333 -30 -88 -45 -140 -45c-23.333 0 -45.666 3.83301 -66.999 11.5s-42.333 18.834 -63 33.501l-40 -39zM383.999 278.001c0 43.333 -15.499 80.833 -46.499 112.5s-68.167 47.5 -111.5 47.5
c-46.667 0 -85.834 -15.5 -117.501 -46.5s-47.5 -69.833 -47.5 -116.5c0 -44 15.667 -81.667 47 -113s69 -47 113 -47c44.667 0 83 15.667 115 47s48 70 48 116z" />
    <glyph glyph-name="yen" unicode="&#xa5;" 
d="M349 750v108h65v-166h-280v-692h-65v750h280z" />
    <glyph glyph-name="yen" unicode="&#x490;" 
d="M349 750v108h65v-166h-280v-692h-65v750h280z" />
    <glyph glyph-name="brokenbar" unicode="&#xa6;" horiz-adv-x="222" 
d="M85 0v300h52v-300h-52zM85 750h52v-300h-52v300z" />
    <glyph glyph-name="section" unicode="&#xa7;" 
d="M293 378l-137.001 98.999c-23.333 -10 -42.5 -25.167 -57.5 -45.5s-22.5 -43.166 -22.5 -68.499c0 -24.667 4.66699 -44.167 14 -58.5s25 -29.166 47 -44.499l154 -109c22.667 10 41.334 24.667 56.001 44s22 40.666 22 63.999c0 26 -7.33301 49 -22 69
c-11.333 15.333 -29.333 32 -54 50zM259.999 102.999l-154.003 117c-26.667 20 -46.667 41 -60 63s-20 47.667 -20 77c0 32.667 9 61 27 85c14.667 19.333 37.667 39 69 59c-20 22 -34 41.667 -42 59s-12 39.333 -12 66c0 20 4.33301 39 13 57s21 34 37 48
s31.333 23.167 46 27.5s34.334 6.5 59.001 6.5c48.667 0 87 -16 115 -48s42 -72.333 42 -121h-55c0 34 -8 62.333 -24 85c-18.667 26 -44.667 39 -78 39c-30 0 -53.833 -7.33301 -71.5 -22s-26.5 -36.334 -26.5 -65.001c-0.666992 -6 -1 -10.333 -1 -13
c0 -23.333 6 -43.666 18 -60.999c10 -14.667 26.333 -30 49 -46l112 -76c44.667 -30.667 76.334 -62.667 95.001 -96c14 -25.333 21 -53 21 -83c0 -28.667 -9.33301 -56 -28 -82c-16 -22 -38 -41.667 -66 -59c35.333 -31.333 53 -71 53 -119
c0 -44.667 -14.167 -80.5 -42.5 -107.5s-65.5 -40.5 -111.5 -40.5c-49.333 0 -88 15.667 -116 47s-42 72.333 -42 123h54c0 -38.667 8.83301 -69.167 26.5 -91.5s42.834 -33.5 75.501 -33.5c32 0 57.333 10.333 76 31c16 18 24 40 24 66c0 22.667 -5.33301 42.667 -16 60
s-26 33.333 -46 48z" />
    <glyph glyph-name="dieresis" unicode="&#xa8;" 
d="M412 0h-345v750h340v-58h-275v-270h250v-58h-250v-306h280v-58zM112 815v102h64v-102h-64zM270 815v102h64v-102h-64z" />
    <glyph glyph-name="dieresis" unicode="&#x401;" 
d="M412 0h-345v750h340v-58h-275v-270h250v-58h-250v-306h280v-58zM112 815v102h64v-102h-64zM270 815v102h64v-102h-64z" />
    <glyph glyph-name="copyright" unicode="&#xa9;" horiz-adv-x="800" 
d="M401 -18c-106 0 -196.5 38.501 -271.5 115.501s-112.5 169.833 -112.5 278.5c0 108 37.5 200.5 112.5 277.5s165.5 115.5 271.5 115.5c105.333 0 195.333 -38.333 270 -115s112 -169.334 112 -278.001s-37.333 -201.5 -112 -278.5s-164.667 -115.5 -270 -115.5z
M401 29.001c92.667 0 171.669 33.668 237.002 101.001s98 149.333 98 246c0 95.333 -32.667 176.666 -98 243.999s-144.333 101 -237 101s-171.834 -33.5 -237.501 -100.5s-98.5 -148.5 -98.5 -244.5c0 -95.333 32.667 -177 98 -245s144.666 -102 237.999 -102z
M540.002 304.002h55.001c-4.66699 -45.333 -24 -82 -58 -110s-73.667 -42 -119 -42c-63.333 0 -114.5 21.5 -153.5 64.5s-58.5 97.167 -58.5 162.5c0 66.667 18.667 121 56 163s88.333 63 153 63c46.667 0 86.5 -13.167 119.5 -39.5s53.167 -62.5 60.5 -108.5h-55
c-5.33301 30.667 -19.5 55.334 -42.5 74.001s-50.167 28 -81.5 28c-48.667 0 -86.5 -16.833 -113.5 -50.5s-40.5 -76.5 -40.5 -128.5c0 -49.333 14.167 -91.833 42.5 -127.5s66.166 -53.5 113.499 -53.5c30.667 0 57.667 9.66699 81 29s37 44.666 41 75.999z" />
    <glyph glyph-name="ordfeminine" unicode="&#xaa;" horiz-adv-x="556" 
d="M492 254c0 -72.667 -16.334 -133.998 -49.001 -183.998c-38.667 -58.667 -93 -88 -163 -88c-66 0 -116.667 24 -152 72c-28 38 -46.667 92.667 -56 164c-6 45.333 -9 104.666 -9 177.999c0 66.667 4 121.334 12 164.001c12 62.667 32.333 111 61 145
c36 42 84.667 63 146 63c65.333 0 116.333 -23 153 -69c34 -42.667 51 -97.667 51 -165h-65c0 49.333 -10.667 89.666 -32 120.999c-25.333 36.667 -61.666 55 -108.999 55c-61.333 0 -104 -34 -128 -102c-16 -45.333 -24 -107.333 -24 -186h236v-58h-236
c0 -93.333 6.66699 -162 20 -206c24 -78.667 70.333 -118 139 -118c50.667 0 88 24 112 72c18.667 37.333 28 84.666 28 141.999h65z" />
    <glyph glyph-name="ordfeminine" unicode="&#x404;" horiz-adv-x="556" 
d="M492 254c0 -72.667 -16.334 -133.998 -49.001 -183.998c-38.667 -58.667 -93 -88 -163 -88c-66 0 -116.667 24 -152 72c-28 38 -46.667 92.667 -56 164c-6 45.333 -9 104.666 -9 177.999c0 66.667 4 121.334 12 164.001c12 62.667 32.333 111 61 145
c36 42 84.667 63 146 63c65.333 0 116.333 -23 153 -69c34 -42.667 51 -97.667 51 -165h-65c0 49.333 -10.667 89.666 -32 120.999c-25.333 36.667 -61.666 55 -108.999 55c-61.333 0 -104 -34 -128 -102c-16 -45.333 -24 -107.333 -24 -186h236v-58h-236
c0 -93.333 6.66699 -162 20 -206c24 -78.667 70.333 -118 139 -118c50.667 0 88 24 112 72c18.667 37.333 28 84.666 28 141.999h65z" />
    <glyph glyph-name="guillemotleft" unicode="&#xab;" horiz-adv-x="500" 
d="M224 130l-141 106v70l141 106v-60l-101 -81l101 -79v-62zM411 130l-141 106v70l141 106v-60l-102 -81l102 -79v-62z" />
    <glyph glyph-name="logicalnot" unicode="&#xac;" 
d="M21 360h403v-267h-51v216h-352v51z" />
    <glyph glyph-name="minus" unicode="&#xad;" horiz-adv-x="333" 
d="M19 690h296v-45h-296v45z" />
    <glyph glyph-name="registered" unicode="&#xae;" horiz-adv-x="800" 
d="M401 -18c-106 0 -196.5 38.501 -271.5 115.501s-112.5 169.833 -112.5 278.5c0 108 37.5 200.5 112.5 277.5s165.5 115.5 271.5 115.5c105.333 0 195.333 -38.333 270 -115s112 -169.334 112 -278.001s-37.333 -201.5 -112 -278.5s-164.667 -115.5 -270 -115.5z
M401 29.001c92.667 0 171.669 33.668 237.002 101.001s98 149.333 98 246c0 95.333 -32.667 176.666 -98 243.999s-144.333 101 -237 101s-171.834 -33.5 -237.501 -100.5s-98.5 -148.5 -98.5 -244.5c0 -95.333 32.667 -177 98 -245s144.666 -102 237.999 -102z
M462.002 359.002l129.003 -202.999h-62l-122 203h-96v-203h-52v440h186c23.333 0 42.666 -1.33301 57.999 -4s30.666 -8.66699 45.999 -18s27.166 -22.5 35.499 -39.5s12.5 -35.5 12.5 -55.5c0 -40.667 -13 -71.334 -39 -92.001c-23.333 -18.667 -55.333 -28 -96 -28z
M311.005 401.003h79.999h31c38 0 65.333 3.66699 82 11c26.667 12 40 34.667 40 68c0 30.667 -11.667 51.667 -35 63c-17.333 8.66699 -42.666 13 -75.999 13h-122v-155z" />
    <glyph glyph-name="macron" unicode="&#xaf;" horiz-adv-x="222" 
d="M144 0h-65v750h65v-750zM1 815v102h64v-102h-64zM159 815v102h64v-102h-64z" />
    <glyph glyph-name="macron" unicode="&#x407;" horiz-adv-x="222" 
d="M144 0h-65v750h65v-750zM1 815v102h64v-102h-64zM159 815v102h64v-102h-64z" />
    <glyph glyph-name="degree" unicode="&#xb0;" horiz-adv-x="400" 
d="M350 594c0 -41.333 -14.667 -76.666 -44 -105.999s-64.666 -44 -105.999 -44s-76.666 14.667 -105.999 44s-44 64.666 -44 105.999s14.667 76.666 44 105.999s64.666 44 105.999 44s76.666 -14.667 105.999 -44s44 -64.666 44 -105.999zM310 594
c0 30 -10.832 55.833 -32.499 77.5s-47.834 32.5 -78.501 32.5c-30 0 -55.667 -10.667 -77 -32s-32 -47.333 -32 -78s10.667 -56.667 32 -78s47.333 -32 78 -32c30 0 55.833 10.833 77.5 32.5s32.5 47.5 32.5 77.5z" />
    <glyph glyph-name="plusminus" unicode="&#xb1;" 
d="M197 270h-176v51h176v169h51v-169h176v-51h-176v-170h-51v170zM424 51v-51h-403v51h403z" />
    <glyph glyph-name="twosuperior" unicode="&#xb2;" horiz-adv-x="222" 
d="M144 0h-65v750h65v-750z" />
    <glyph glyph-name="twosuperior" unicode="&#x406;" horiz-adv-x="222" 
d="M144 0h-65v750h65v-750z" />
    <glyph glyph-name="threesuperior" unicode="&#xb3;" horiz-adv-x="222" 
d="M140 0h-58v552h58v-552zM145 655h-67v95h67v-95z" />
    <glyph glyph-name="threesuperior" unicode="&#x456;" horiz-adv-x="222" 
d="M140 0h-58v552h58v-552zM145 655h-67v95h67v-95z" />
    <glyph glyph-name="acute" unicode="&#xb4;" horiz-adv-x="360" 
d="M324 500h-201v-500h-57v552h201v108h57v-160z" />
    <glyph glyph-name="acute" unicode="&#x491;" horiz-adv-x="360" 
d="M324 500h-201v-500h-57v552h201v108h57v-160z" />
    <glyph glyph-name="mu" unicode="&#xb5;" 
d="M321 132l-0.000976562 420.001h58v-552h-56v51c-18 -23.333 -38.5 -40 -61.5 -50s-49.5 -15 -79.5 -15c-13.333 0 -25.166 2.16699 -35.499 6.5s-19.833 10.166 -28.5 17.499v-199h-58v741h58v-418c0 -35.333 7.33301 -60.333 22 -75s39.667 -22 75 -22
c21.333 0 42 9.66699 62 29s34.667 41.333 44 66z" />
    <glyph glyph-name="paragraph" unicode="&#xb6;" horiz-adv-x="564" 
d="M229 -116v481.999c-50 0 -91.833 18.5 -125.5 55.5s-50.5 81.833 -50.5 134.5c0 66.667 19 116.334 57 149.001c34.667 30 84.667 45 150 45h183v-866h-58v799h-98v-799h-58z" />
    <glyph glyph-name="periodcentered" unicode="&#xb7;" horiz-adv-x="222" 
d="M146 201h-69v88h69v-88z" />
    <glyph glyph-name="periodcentered" unicode="&#x2219;" horiz-adv-x="222" 
d="M146 201h-69v88h69v-88z" />
    <glyph glyph-name="cedilla" unicode="&#xb8;" horiz-adv-x="389" 
d="M352 335v-55.998h-259v-34c0 -58.667 5 -103.334 15 -134.001c16 -49.333 45.667 -74 89 -74c37.333 0 63.666 15.333 78.999 46c12 23.333 18 55.666 18 96.999h56c0 -56.667 -11.333 -101.667 -34 -135c-26.667 -39.333 -66.667 -59 -120 -59
c-67.333 0 -113.333 33.667 -138 101c-15.333 42 -23 104.333 -23 187s7.33301 145 22 187c24.667 70 70.334 105 137.001 105c58 0 100.333 -25.333 127 -76c20.667 -39.333 31 -91 31 -155zM93 330.002h201c0 50.667 -5 90 -15 118c-16 44.667 -44.667 67 -86 67
c-39.333 0 -67.333 -22.667 -84 -68c-10.667 -29.333 -16 -68.333 -16 -117zM84 617.002v102h64v-102h-64zM242 617.002v102h64v-102h-64z" />
    <glyph glyph-name="cedilla" unicode="&#x451;" horiz-adv-x="389" 
d="M352 335v-55.998h-259v-34c0 -58.667 5 -103.334 15 -134.001c16 -49.333 45.667 -74 89 -74c37.333 0 63.666 15.333 78.999 46c12 23.333 18 55.666 18 96.999h56c0 -56.667 -11.333 -101.667 -34 -135c-26.667 -39.333 -66.667 -59 -120 -59
c-67.333 0 -113.333 33.667 -138 101c-15.333 42 -23 104.333 -23 187s7.33301 145 22 187c24.667 70 70.334 105 137.001 105c58 0 100.333 -25.333 127 -76c20.667 -39.333 31 -91 31 -155zM93 330.002h201c0 50.667 -5 90 -15 118c-16 44.667 -44.667 67 -86 67
c-39.333 0 -67.333 -22.667 -84 -68c-10.667 -29.333 -16 -68.333 -16 -117zM84 617.002v102h64v-102h-64zM242 617.002v102h64v-102h-64z" />
    <glyph glyph-name="onesuperior" unicode="&#xb9;" horiz-adv-x="833" 
d="M147 750l276 -644l2 644h65v-750h-79l-278 642l-2 -642h-65v750h81zM690 768c44 0 75 -18.667 93 -56c12.667 -26.667 19 -65 19 -115c0 -51.333 -6.33301 -90 -19 -116c-18 -37.333 -49.667 -56 -95 -56c-47.333 0 -79.333 19 -96 57c-11.333 26 -17 66.667 -17 122
c0 48.667 7 86 21 112c18.667 34.667 50 52 94 52zM685 737c-32 0 -53.002 -21.001 -63.002 -63.001c-4.66699 -20 -7 -53.667 -7 -101c0 -31.333 2.66699 -54.666 8 -69.999c8 -24 24 -39.667 48 -47c3.33301 -0.666992 8.33301 -1 15 -1c32.667 0 54.334 15.333 65.001 46
c6.66699 19.333 10 51.333 10 96c0 42.667 -3 73 -9 91c-11.333 32.667 -33.666 49 -66.999 49zM587.998 363.999h192v-31h-192v31z" />
    <glyph glyph-name="onesuperior" unicode="&#x2116;" horiz-adv-x="833" 
d="M147 750l276 -644l2 644h65v-750h-79l-278 642l-2 -642h-65v750h81zM690 768c44 0 75 -18.667 93 -56c12.667 -26.667 19 -65 19 -115c0 -51.333 -6.33301 -90 -19 -116c-18 -37.333 -49.667 -56 -95 -56c-47.333 0 -79.333 19 -96 57c-11.333 26 -17 66.667 -17 122
c0 48.667 7 86 21 112c18.667 34.667 50 52 94 52zM685 737c-32 0 -53.002 -21.001 -63.002 -63.001c-4.66699 -20 -7 -53.667 -7 -101c0 -31.333 2.66699 -54.666 8 -69.999c8 -24 24 -39.667 48 -47c3.33301 -0.666992 8.33301 -1 15 -1c32.667 0 54.334 15.333 65.001 46
c6.66699 19.333 10 51.333 10 96c0 42.667 -3 73 -9 91c-11.333 32.667 -33.666 49 -66.999 49zM587.998 363.999h192v-31h-192v31z" />
    <glyph glyph-name="ordmasculine" unicode="&#xba;" horiz-adv-x="389" 
d="M359 183c0 -57.333 -10.999 -103.001 -32.999 -137.001c-26 -40 -66 -60 -120 -60c-50 0 -88.333 16 -115 48c-22 26 -37 64 -45 114c-5.33301 33.333 -8 77 -8 131c0 82.667 8.33301 145.334 25 188.001c26 66 73 99 141 99c46.667 0 84 -18 112 -54
c25.333 -32.667 38 -73.667 38 -123h-57c0 35.333 -8.66699 65.166 -26 89.499s-41 36.5 -71 36.5c-40.667 0 -69.334 -22.667 -86.001 -68c-12 -32.667 -18 -77 -18 -133h171v-51h-171c0 -63.333 4.66699 -110.666 14 -141.999c16.667 -56 49 -84 97 -84
c35.333 0 60.333 16.333 75 49c8 18.667 14.333 51 19 97h58z" />
    <glyph glyph-name="ordmasculine" unicode="&#x454;" horiz-adv-x="389" 
d="M359 183c0 -57.333 -10.999 -103.001 -32.999 -137.001c-26 -40 -66 -60 -120 -60c-50 0 -88.333 16 -115 48c-22 26 -37 64 -45 114c-5.33301 33.333 -8 77 -8 131c0 82.667 8.33301 145.334 25 188.001c26 66 73 99 141 99c46.667 0 84 -18 112 -54
c25.333 -32.667 38 -73.667 38 -123h-57c0 35.333 -8.66699 65.166 -26 89.499s-41 36.5 -71 36.5c-40.667 0 -69.334 -22.667 -86.001 -68c-12 -32.667 -18 -77 -18 -133h171v-51h-171c0 -63.333 4.66699 -110.666 14 -141.999c16.667 -56 49 -84 97 -84
c35.333 0 60.333 16.333 75 49c8 18.667 14.333 51 19 97h58z" />
    <glyph glyph-name="guillemotright" unicode="&#xbb;" horiz-adv-x="500" 
d="M276 352v60l141 -106v-70l-141 -106v62l101 79zM89 412l141 -106v-70l-141 -106v62l102 79l-102 81v60z" />
    <glyph glyph-name="onequarter" unicode="&#xbc;" horiz-adv-x="222" 
d="M21 -189l-0.000976562 54.002c6.66699 0 13.5 0.5 20.5 1.5s12.5 1.83301 16.5 2.5c16 5.33301 25 16.666 27 33.999s3 31.666 3 42.999v606h58v-608v-15c0 -22.667 -1.66699 -41.167 -5 -55.5s-11.666 -27.833 -24.999 -40.5c-12.667 -8.66699 -26.667 -14.5 -42 -17.5
s-33 -4.5 -53 -4.5zM82.999 750.002h67v-92h-67v92z" />
    <glyph glyph-name="onequarter" unicode="&#x458;" horiz-adv-x="222" 
d="M21 -189l-0.000976562 54.002c6.66699 0 13.5 0.5 20.5 1.5s12.5 1.83301 16.5 2.5c16 5.33301 25 16.666 27 33.999s3 31.666 3 42.999v606h58v-608v-15c0 -22.667 -1.66699 -41.167 -5 -55.5s-11.666 -27.833 -24.999 -40.5c-12.667 -8.66699 -26.667 -14.5 -42 -17.5
s-33 -4.5 -53 -4.5zM82.999 750.002h67v-92h-67v92z" />
    <glyph glyph-name="onehalf" unicode="&#xbd;" horiz-adv-x="500" 
d="M211 433l57.9961 -24c68.667 -28.667 114.334 -53.334 137.001 -74.001c36.667 -33.333 55 -80.666 55 -141.999c0 -64.667 -19.333 -116 -58 -154s-91 -57 -157 -57s-116.833 21.167 -152.5 63.5s-53.5 97.833 -53.5 166.5h64c0 -52 10.333 -92.333 31 -121
c24 -34 60.667 -51 110 -51c46 0 82.667 13.333 110 40s41 63.667 41 111c0 50 -17 87.333 -51 112c-13.333 10 -52.333 27.667 -117 53c-58 22.667 -99.333 46.667 -124 72c-32.667 33.333 -49 77.666 -49 132.999c0 62 17.333 112 52 150s82.334 57 143.001 57
c58 0 104.333 -18.333 139 -55s52 -84.667 52 -144h-63c0 42.667 -11.167 76.834 -33.5 102.501s-54.166 38.5 -95.499 38.5s-73.166 -13.5 -95.499 -40.5s-33.5 -61.833 -33.5 -104.5c0 -36.667 6.5 -64 19.5 -82s36.833 -34.667 71.5 -50z" />
    <glyph glyph-name="onehalf" unicode="&#x405;" horiz-adv-x="500" 
d="M211 433l57.9961 -24c68.667 -28.667 114.334 -53.334 137.001 -74.001c36.667 -33.333 55 -80.666 55 -141.999c0 -64.667 -19.333 -116 -58 -154s-91 -57 -157 -57s-116.833 21.167 -152.5 63.5s-53.5 97.833 -53.5 166.5h64c0 -52 10.333 -92.333 31 -121
c24 -34 60.667 -51 110 -51c46 0 82.667 13.333 110 40s41 63.667 41 111c0 50 -17 87.333 -51 112c-13.333 10 -52.333 27.667 -117 53c-58 22.667 -99.333 46.667 -124 72c-32.667 33.333 -49 77.666 -49 132.999c0 62 17.333 112 52 150s82.334 57 143.001 57
c58 0 104.333 -18.333 139 -55s52 -84.667 52 -144h-63c0 42.667 -11.167 76.834 -33.5 102.501s-54.166 38.5 -95.499 38.5s-73.166 -13.5 -95.499 -40.5s-33.5 -61.833 -33.5 -104.5c0 -36.667 6.5 -64 19.5 -82s36.833 -34.667 71.5 -50z" />
    <glyph glyph-name="threequarters" unicode="&#xbe;" horiz-adv-x="389" 
d="M44 407c-0.666992 10 -0.998047 17.668 -0.998047 23.001c0 43.333 12.167 76.833 36.5 100.5s59.833 35.5 106.5 35.5c47.333 0 84.166 -13.833 110.499 -41.5s39.5 -65.5 39.5 -113.5h-57c0 30.667 -8.33301 55.667 -25 75s-40 29 -70 29
c-26.667 0 -47 -7.66699 -61 -23s-21 -37 -21 -65c0 -20.667 6.33301 -38.334 19 -53.001c10.667 -12 26.667 -22.333 48 -31c61.333 -28 103.666 -53 126.999 -75c36 -33.333 54 -76.666 54 -129.999c0 -48.667 -13.833 -86.167 -41.5 -112.5s-66.167 -39.5 -115.5 -39.5
c-54 0 -94.333 13.833 -121 41.5s-40 68.5 -40 122.5h59c0 -35.333 8.83301 -63 26.5 -83s44.167 -30 79.5 -30c29.333 0 52.5 9.83301 69.5 29.5s25.5 44.5 25.5 74.5c0 40 -21.333 73.333 -64 100l-120 63c-42.667 27.333 -64 61.666 -64 102.999z" />
    <glyph glyph-name="threequarters" unicode="&#x455;" horiz-adv-x="389" 
d="M44 407c-0.666992 10 -0.998047 17.668 -0.998047 23.001c0 43.333 12.167 76.833 36.5 100.5s59.833 35.5 106.5 35.5c47.333 0 84.166 -13.833 110.499 -41.5s39.5 -65.5 39.5 -113.5h-57c0 30.667 -8.33301 55.667 -25 75s-40 29 -70 29
c-26.667 0 -47 -7.66699 -61 -23s-21 -37 -21 -65c0 -20.667 6.33301 -38.334 19 -53.001c10.667 -12 26.667 -22.333 48 -31c61.333 -28 103.666 -53 126.999 -75c36 -33.333 54 -76.666 54 -129.999c0 -48.667 -13.833 -86.167 -41.5 -112.5s-66.167 -39.5 -115.5 -39.5
c-54 0 -94.333 13.833 -121 41.5s-40 68.5 -40 122.5h59c0 -35.333 8.83301 -63 26.5 -83s44.167 -30 79.5 -30c29.333 0 52.5 9.83301 69.5 29.5s25.5 44.5 25.5 74.5c0 40 -21.333 73.333 -64 100l-120 63c-42.667 27.333 -64 61.666 -64 102.999z" />
    <glyph glyph-name="questiondown" unicode="&#xbf;" horiz-adv-x="200" 
d="M129 0h-58v552h58v-552zM-10 617v102h64v-102h-64zM148 617v102h64v-102h-64z" />
    <glyph glyph-name="questiondown" unicode="&#x457;" horiz-adv-x="200" 
d="M129 0h-58v552h58v-552zM-10 617v102h64v-102h-64zM148 617v102h64v-102h-64z" />
    <glyph glyph-name="Agrave" unicode="&#xc0;" horiz-adv-x="500" 
d="M150 289h200l-99 379zM213 750h75l201 -750h-66l-59 231h-228l-61 -231h-63z" />
    <glyph glyph-name="Agrave" unicode="&#x410;" horiz-adv-x="500" 
d="M150 289h200l-99 379zM213 750h75l201 -750h-66l-59 231h-228l-61 -231h-63z" />
    <glyph glyph-name="Aacute" unicode="&#xc1;" horiz-adv-x="500" 
d="M134 364v-305.999h57c69.333 0 118.333 8.66699 147 26c38.667 23.333 58 67 58 131c0 55.333 -14.333 94.666 -43 117.999c-26 20.667 -66.667 31 -122 31h-97zM414 750.001l0.00195312 -58h-280v-270h69c90 0 154.333 -13.667 193 -41c43.333 -30.667 65 -84 65 -160
c0 -39.333 -4.83301 -72.5 -14.5 -99.5s-25.834 -49.833 -48.501 -68.5c-16 -14 -37.667 -25.667 -65 -35c-34.667 -12 -67.334 -18 -98.001 -18h-166v750h345z" />
    <glyph glyph-name="Aacute" unicode="&#x411;" horiz-adv-x="500" 
d="M134 364v-305.999h57c69.333 0 118.333 8.66699 147 26c38.667 23.333 58 67 58 131c0 55.333 -14.333 94.666 -43 117.999c-26 20.667 -66.667 31 -122 31h-97zM414 750.001l0.00195312 -58h-280v-270h69c90 0 154.333 -13.667 193 -41c43.333 -30.667 65 -84 65 -160
c0 -39.333 -4.83301 -72.5 -14.5 -99.5s-25.834 -49.833 -48.501 -68.5c-16 -14 -37.667 -25.667 -65 -35c-34.667 -12 -67.334 -18 -98.001 -18h-166v750h345z" />
    <glyph glyph-name="Acircumflex" unicode="&#xc2;" horiz-adv-x="500" 
d="M195 364l-68 0.000976562v-306h81c62 0 106.667 10.333 134 31c31.333 24 47 66.667 47 128s-18.667 102.666 -56 123.999c-26.667 15.333 -72.667 23 -138 23zM127 422.001h67.001c59.333 0 101.666 8.66699 126.999 26c31.333 21.333 47 60.333 47 117
c0 53.333 -17.667 89.333 -53 108c-24.667 12.667 -67 19 -127 19h-61v-270zM165.001 0.000976562l-103 -0.000976562v750h164c31.333 0 59.666 -2.66699 84.999 -8s47.5 -16.5 66.5 -33.5s33 -37.5 42 -61.5s13.5 -50.667 13.5 -80c0 -40 -7.66699 -74.333 -23 -103
c-17.333 -32 -43.666 -54.667 -78.999 -68c42 -11.333 73 -32.666 93 -63.999s30 -70 30 -116c0 -87.333 -27.667 -147 -83 -179c-42 -24.667 -110.667 -37 -206 -37z" />
    <glyph glyph-name="Acircumflex" unicode="&#x412;" horiz-adv-x="500" 
d="M195 364l-68 0.000976562v-306h81c62 0 106.667 10.333 134 31c31.333 24 47 66.667 47 128s-18.667 102.666 -56 123.999c-26.667 15.333 -72.667 23 -138 23zM127 422.001h67.001c59.333 0 101.666 8.66699 126.999 26c31.333 21.333 47 60.333 47 117
c0 53.333 -17.667 89.333 -53 108c-24.667 12.667 -67 19 -127 19h-61v-270zM165.001 0.000976562l-103 -0.000976562v750h164c31.333 0 59.666 -2.66699 84.999 -8s47.5 -16.5 66.5 -33.5s33 -37.5 42 -61.5s13.5 -50.667 13.5 -80c0 -40 -7.66699 -74.333 -23 -103
c-17.333 -32 -43.666 -54.667 -78.999 -68c42 -11.333 73 -32.666 93 -63.999s30 -70 30 -116c0 -87.333 -27.667 -147 -83 -179c-42 -24.667 -110.667 -37 -206 -37z" />
    <glyph glyph-name="Atilde" unicode="&#xc3;" 
d="M134 0h-65v750h345v-58h-280v-692z" />
    <glyph glyph-name="Atilde" unicode="&#x413;" 
d="M134 0h-65v750h345v-58h-280v-692z" />
    <glyph glyph-name="Adieresis" unicode="&#xc4;" horiz-adv-x="556" 
d="M62 58c18.667 12.667 31.5 36.333 38.5 71s10.5 81.667 10.5 141v480h377v-692h47v-166h-65v108h-388v-108h-65v166h45zM423 57.999v634h-247v-432c0 -44 -2.66699 -83.167 -8 -117.5s-15.333 -62.5 -30 -84.5h285z" />
    <glyph glyph-name="Adieresis" unicode="&#x414;" horiz-adv-x="556" 
d="M62 58c18.667 12.667 31.5 36.333 38.5 71s10.5 81.667 10.5 141v480h377v-692h47v-166h-65v108h-388v-108h-65v166h45zM423 57.999v634h-247v-432c0 -44 -2.66699 -83.167 -8 -117.5s-15.333 -62.5 -30 -84.5h285z" />
    <glyph glyph-name="Aring" unicode="&#xc5;" 
d="M412 0h-345v750h340v-58h-275v-270h250v-58h-250v-306h280v-58z" />
    <glyph glyph-name="Aring" unicode="&#x415;" 
d="M412 0h-345v750h340v-58h-275v-270h250v-58h-250v-306h280v-58z" />
    <glyph glyph-name="AE" unicode="&#xc6;" horiz-adv-x="795" 
d="M430 750v-375l273 375h75l-222 -303l233 -447h-70l-205 394l-84 -110v-284h-65v284l-84 110l-205 -394h-70l233 447l-222 303h75l273 -375v375h65z" />
    <glyph glyph-name="AE" unicode="&#x416;" horiz-adv-x="795" 
d="M430 750v-375l273 375h75l-222 -303l233 -447h-70l-205 394l-84 -110v-284h-65v284l-84 110l-205 -394h-70l233 447l-222 303h75l273 -375v375h65z" />
    <glyph glyph-name="Ccedilla" unicode="&#xc7;" horiz-adv-x="500" 
d="M225 364l-47 -0.000976562v55h21c54 0 96.333 13.333 127 40s46 65 46 115c0 38 -10.667 70 -32 96c-23.333 28.667 -54.666 43 -93.999 43c-40 0 -71.667 -16.667 -95 -50c-19.333 -27.333 -30.666 -61.333 -33.999 -102h-62c0 56.667 15.667 104.334 47 143.001
c34.667 42.667 80.667 64 138 64c60.667 0 109.167 -18.833 145.5 -56.5s54.5 -85.167 54.5 -142.5c0 -28.667 -5.66699 -55.667 -17 -81c-19.333 -42 -52 -72.333 -98 -91c47.333 -16.667 82.666 -44.334 105.999 -83.001c19.333 -32 29 -69.667 29 -113
c0 -69.333 -19.5 -122.833 -58.5 -160.5s-90.167 -56.5 -153.5 -56.5c-62 0 -110.667 15.667 -146 47c-42.667 38 -64 94 -64 168h65c0 -45.333 11.333 -82.333 34 -111c26 -32.667 62.333 -49 109 -49c45.333 0 81.666 17 108.999 51c24.667 30.667 37 68.334 37 113.001
c0 38.667 -11.333 72.667 -34 102c-30 39.333 -74.333 59 -133 59z" />
    <glyph glyph-name="Ccedilla" unicode="&#x417;" horiz-adv-x="500" 
d="M225 364l-47 -0.000976562v55h21c54 0 96.333 13.333 127 40s46 65 46 115c0 38 -10.667 70 -32 96c-23.333 28.667 -54.666 43 -93.999 43c-40 0 -71.667 -16.667 -95 -50c-19.333 -27.333 -30.666 -61.333 -33.999 -102h-62c0 56.667 15.667 104.334 47 143.001
c34.667 42.667 80.667 64 138 64c60.667 0 109.167 -18.833 145.5 -56.5s54.5 -85.167 54.5 -142.5c0 -28.667 -5.66699 -55.667 -17 -81c-19.333 -42 -52 -72.333 -98 -91c47.333 -16.667 82.666 -44.334 105.999 -83.001c19.333 -32 29 -69.667 29 -113
c0 -69.333 -19.5 -122.833 -58.5 -160.5s-90.167 -56.5 -153.5 -56.5c-62 0 -110.667 15.667 -146 47c-42.667 38 -64 94 -64 168h65c0 -45.333 11.333 -82.333 34 -111c26 -32.667 62.333 -49 109 -49c45.333 0 81.666 17 108.999 51c24.667 30.667 37 68.334 37 113.001
c0 38.667 -11.333 72.667 -34 102c-30 39.333 -74.333 59 -133 59z" />
    <glyph glyph-name="Egrave" unicode="&#xc8;" horiz-adv-x="556" 
d="M409 750h81v-750h-65v642l-280 -642h-79v750h65v-644z" />
    <glyph glyph-name="Egrave" unicode="&#x418;" horiz-adv-x="556" 
d="M409 750h81v-750h-65v642l-280 -642h-79v750h65v-644z" />
    <glyph glyph-name="Eacute" unicode="&#xc9;" horiz-adv-x="556" 
d="M409 750h81v-750h-65v642l-280 -642h-79v750h65v-644zM136 917l39.999 0.000976562c4.66699 -26.667 16.334 -46.834 35.001 -60.501s42 -20.5 70 -20.5s51.333 6.83301 70 20.5s30.667 33.834 36 60.501h37c-4 -40.667 -19.167 -71.834 -45.5 -93.501
s-60.5 -32.5 -102.5 -32.5c-40 0 -72.333 11 -97 33s-39 53 -43 93z" />
    <glyph glyph-name="Eacute" unicode="&#x419;" horiz-adv-x="556" 
d="M409 750h81v-750h-65v642l-280 -642h-79v750h65v-644zM136 917l39.999 0.000976562c4.66699 -26.667 16.334 -46.834 35.001 -60.501s42 -20.5 70 -20.5s51.333 6.83301 70 20.5s30.667 33.834 36 60.501h37c-4 -40.667 -19.167 -71.834 -45.5 -93.501
s-60.5 -32.5 -102.5 -32.5c-40 0 -72.333 11 -97 33s-39 53 -43 93z" />
    <glyph glyph-name="Ecircumflex" unicode="&#xca;" horiz-adv-x="500" 
d="M132 0h-65v750h65v-375l273 375h75l-222 -303l233 -447h-70l-205 394l-84 -110v-284z" />
    <glyph glyph-name="Ecircumflex" unicode="&#x41a;" horiz-adv-x="500" 
d="M132 0h-65v750h65v-375l273 375h75l-222 -303l233 -447h-70l-205 394l-84 -110v-284z" />
    <glyph glyph-name="Edieresis" unicode="&#xcb;" horiz-adv-x="556" 
d="M176 692v-432c0 -117.333 -11.667 -193 -35 -227s-61 -51 -113 -51v64c37.333 0 61.333 19.333 72 58c7.33301 26.667 11 82 11 166v480h377v-750h-65v692h-247z" />
    <glyph glyph-name="Edieresis" unicode="&#x41b;" horiz-adv-x="556" 
d="M176 692v-432c0 -117.333 -11.667 -193 -35 -227s-61 -51 -113 -51v64c37.333 0 61.333 19.333 72 58c7.33301 26.667 11 82 11 166v480h377v-750h-65v692h-247z" />
    <glyph glyph-name="Igrave" unicode="&#xcc;" horiz-adv-x="722" 
d="M138 0h-65v750h109l178 -654l184 654h106v-750h-65v685l-188 -685h-69l-188 685z" />
    <glyph glyph-name="Igrave" unicode="&#x41c;" horiz-adv-x="722" 
d="M138 0h-65v750h109l178 -654l184 654h106v-750h-65v685l-188 -685h-69l-188 685z" />
    <glyph glyph-name="Iacute" unicode="&#xcd;" horiz-adv-x="556" 
d="M133 0h-65v750h65v-319h290v319h65v-750h-65v373h-290v-373z" />
    <glyph glyph-name="Iacute" unicode="&#x41d;" horiz-adv-x="556" 
d="M133 0h-65v750h65v-319h290v319h65v-750h-65v373h-290v-373z" />
    <glyph glyph-name="Icircumflex" unicode="&#xce;" horiz-adv-x="556" 
d="M276 -18c-66.667 0 -117.667 24.001 -153 72.001c-28.667 38.667 -47.667 93.334 -57 164.001c-5.33301 40 -8 99.333 -8 178c0 67.333 4 122 12 164c12 62 32.667 110.333 62 145c36 42 84.667 63 146 63c68 0 119.667 -23 155 -69c28 -36.667 47 -90.334 57 -161.001
c6 -43.333 9 -103 9 -179c0 -74.667 -3.33301 -131.334 -10 -170.001c-10.667 -64 -30.667 -112.667 -60 -146c-35.333 -40.667 -86.333 -61 -153 -61zM282 40.001c53.333 0 92 24.833 116 74.5s36 136.167 36 259.5c0 94 -6.33301 163.667 -19 209
c-24 84.667 -70.667 127 -140 127c-64.667 0 -108.667 -41.333 -132 -124c-13.333 -48 -20 -116.333 -20 -205c0 -100 5.66699 -171 17 -213c22.667 -85.333 70 -128 142 -128z" />
    <glyph glyph-name="Icircumflex" unicode="&#x41e;" horiz-adv-x="556" 
d="M276 -18c-66.667 0 -117.667 24.001 -153 72.001c-28.667 38.667 -47.667 93.334 -57 164.001c-5.33301 40 -8 99.333 -8 178c0 67.333 4 122 12 164c12 62 32.667 110.333 62 145c36 42 84.667 63 146 63c68 0 119.667 -23 155 -69c28 -36.667 47 -90.334 57 -161.001
c6 -43.333 9 -103 9 -179c0 -74.667 -3.33301 -131.334 -10 -170.001c-10.667 -64 -30.667 -112.667 -60 -146c-35.333 -40.667 -86.333 -61 -153 -61zM282 40.001c53.333 0 92 24.833 116 74.5s36 136.167 36 259.5c0 94 -6.33301 163.667 -19 209
c-24 84.667 -70.667 127 -140 127c-64.667 0 -108.667 -41.333 -132 -124c-13.333 -48 -20 -116.333 -20 -205c0 -100 5.66699 -171 17 -213c22.667 -85.333 70 -128 142 -128z" />
    <glyph glyph-name="Idieresis" unicode="&#xcf;" horiz-adv-x="556" 
d="M133 0h-65v750h420v-750h-65v692h-290v-692z" />
    <glyph glyph-name="Idieresis" unicode="&#x41f;" horiz-adv-x="556" 
d="M133 0h-65v750h420v-750h-65v692h-290v-692z" />
    <glyph glyph-name="Eth" unicode="&#xd0;" horiz-adv-x="500" 
d="M141 0h-64.999v750h133c88.667 0 152 -13.333 190 -40c42 -29.333 63 -81.333 63 -156c0 -36.667 -4.83301 -68.667 -14.5 -96s-25 -49.833 -46 -67.5s-50.167 -31.167 -87.5 -40.5c-28.667 -7.33301 -53.334 -11 -74.001 -11h-99v-339zM141.001 692v-295h56
c67.333 0 115 8.33301 143 25c38 22.667 57 64.667 57 126c0 54 -14 92.333 -42 115c-24 19.333 -63.667 29 -119 29h-95z" />
    <glyph glyph-name="Eth" unicode="&#x420;" horiz-adv-x="500" 
d="M141 0h-64.999v750h133c88.667 0 152 -13.333 190 -40c42 -29.333 63 -81.333 63 -156c0 -36.667 -4.83301 -68.667 -14.5 -96s-25 -49.833 -46 -67.5s-50.167 -31.167 -87.5 -40.5c-28.667 -7.33301 -53.334 -11 -74.001 -11h-99v-339zM141.001 692v-295h56
c67.333 0 115 8.33301 143 25c38 22.667 57 64.667 57 126c0 54 -14 92.333 -42 115c-24 19.333 -63.667 29 -119 29h-95z" />
    <glyph glyph-name="Ntilde" unicode="&#xd1;" horiz-adv-x="556" 
d="M427 254l64.999 0.00195312c0 -72.667 -16.333 -134 -49 -184c-38.667 -58.667 -93 -88 -163 -88c-66 0 -116.667 24 -152 72c-28 38 -46.667 92.667 -56 164c-6 45.333 -9 104.666 -9 177.999c0 66.667 4 121.334 12 164.001c12 62.667 32.333 111 61 145
c36 42 84.667 63 146 63c65.333 0 116.333 -23 153 -69c34 -42.667 51 -97.667 51 -165h-65c0 49.333 -10.667 89.666 -32 120.999c-25.333 36.667 -61.666 55 -108.999 55c-68 0 -113 -42 -135 -126c-11.333 -43.333 -17 -111 -17 -203c0 -100 5.66699 -171 17 -213
c22.667 -85.333 70 -128 142 -128c50.667 0 88 24 112 72c18.667 37.333 28 84.666 28 141.999z" />
    <glyph glyph-name="Ntilde" unicode="&#x421;" horiz-adv-x="556" 
d="M427 254l64.999 0.00195312c0 -72.667 -16.333 -134 -49 -184c-38.667 -58.667 -93 -88 -163 -88c-66 0 -116.667 24 -152 72c-28 38 -46.667 92.667 -56 164c-6 45.333 -9 104.666 -9 177.999c0 66.667 4 121.334 12 164.001c12 62.667 32.333 111 61 145
c36 42 84.667 63 146 63c65.333 0 116.333 -23 153 -69c34 -42.667 51 -97.667 51 -165h-65c0 49.333 -10.667 89.666 -32 120.999c-25.333 36.667 -61.666 55 -108.999 55c-68 0 -113 -42 -135 -126c-11.333 -43.333 -17 -111 -17 -203c0 -100 5.66699 -171 17 -213
c22.667 -85.333 70 -128 142 -128c50.667 0 88 24 112 72c18.667 37.333 28 84.666 28 141.999z" />
    <glyph glyph-name="Ograve" unicode="&#xd2;" 
d="M190 692h-170v58h405v-58h-170v-692h-65v692z" />
    <glyph glyph-name="Ograve" unicode="&#x422;" 
d="M190 692h-170v58h405v-58h-170v-692h-65v692z" />
    <glyph glyph-name="Oacute" unicode="&#xd3;" horiz-adv-x="500" 
d="M242 193l-232.999 557h72l190 -473l153 473h68l-213 -629c-14.667 -43.333 -30 -75.333 -46 -96c-22.667 -28.667 -51.334 -43 -86.001 -43l-49 3v61l37 -2c15.333 0 28.833 4.5 40.5 13.5s22.5 25.833 32.5 50.5z" />
    <glyph glyph-name="Oacute" unicode="&#x423;" horiz-adv-x="500" 
d="M242 193l-232.999 557h72l190 -473l153 473h68l-213 -629c-14.667 -43.333 -30 -75.333 -46 -96c-22.667 -28.667 -51.334 -43 -86.001 -43l-49 3v61l37 -2c15.333 0 28.833 4.5 40.5 13.5s22.5 25.833 32.5 50.5z" />
    <glyph glyph-name="Ocircumflex" unicode="&#xd4;" horiz-adv-x="722" 
d="M329 573h-62c-50.667 0 -90.667 -17.667 -120 -53s-44 -82.333 -44 -141c0 -64.667 19.333 -115 58 -151c36 -33.333 84.333 -50 145 -50h23v395zM394 573v-394.999h23c60.667 0 109 16.667 145 50c38.667 35.333 58 85.666 58 150.999c0 58.667 -14.5 105.667 -43.5 141
s-69.167 53 -120.5 53h-62zM394 750.001v-120.001h35c83.333 0 146.833 -21.5 190.5 -64.5s65.5 -103.5 65.5 -181.5c0 -79.333 -24 -144 -72 -194c-45.333 -47.333 -101.333 -71 -168 -71h-51v-119h-65v119h-51c-66 0 -122 23.667 -168 71c-48 49.333 -72 114 -72 194
c0 78.667 21.667 139.334 65 182.001s107 64 191 64h35v120h65z" />
    <glyph glyph-name="Ocircumflex" unicode="&#x424;" horiz-adv-x="722" 
d="M329 573h-62c-50.667 0 -90.667 -17.667 -120 -53s-44 -82.333 -44 -141c0 -64.667 19.333 -115 58 -151c36 -33.333 84.333 -50 145 -50h23v395zM394 573v-394.999h23c60.667 0 109 16.667 145 50c38.667 35.333 58 85.666 58 150.999c0 58.667 -14.5 105.667 -43.5 141
s-69.167 53 -120.5 53h-62zM394 750.001v-120.001h35c83.333 0 146.833 -21.5 190.5 -64.5s65.5 -103.5 65.5 -181.5c0 -79.333 -24 -144 -72 -194c-45.333 -47.333 -101.333 -71 -168 -71h-51v-119h-65v119h-51c-66 0 -122 23.667 -168 71c-48 49.333 -72 114 -72 194
c0 78.667 21.667 139.334 65 182.001s107 64 191 64h35v120h65z" />
    <glyph glyph-name="Otilde" unicode="&#xd5;" horiz-adv-x="500" 
d="M211 387l-184 363h73l149 -301l153 301h72l-186 -363l194 -387h-71l-162 326l-161 -326h-70z" />
    <glyph glyph-name="Otilde" unicode="&#x425;" horiz-adv-x="500" 
d="M211 387l-184 363h73l149 -301l153 301h72l-186 -363l194 -387h-71l-162 326l-161 -326h-70z" />
    <glyph glyph-name="Odieresis" unicode="&#xd6;" horiz-adv-x="556" 
d="M470 0h-402v750h65v-692h290v692h65v-692h47v-166h-65v108z" />
    <glyph glyph-name="Odieresis" unicode="&#x426;" horiz-adv-x="556" 
d="M470 0h-402v750h65v-692h290v692h65v-692h47v-166h-65v108z" />
    <glyph glyph-name="multiply" unicode="&#xd7;" horiz-adv-x="518" 
d="M452 0l-65 -0.000976562v373c-32.667 -20 -60.334 -34 -83.001 -42c-33.333 -12 -68.666 -18 -105.999 -18c-42 0 -76.833 14.833 -104.5 44.5s-41.5 67.5 -41.5 113.5v279h65v-263c0 -73.333 34 -110 102 -110c30.667 0 60.5 4.83301 89.5 14.5
s55.167 22.834 78.5 39.501v319h65v-750z" />
    <glyph glyph-name="multiply" unicode="&#x427;" horiz-adv-x="518" 
d="M452 0l-65 -0.000976562v373c-32.667 -20 -60.334 -34 -83.001 -42c-33.333 -12 -68.666 -18 -105.999 -18c-42 0 -76.833 14.833 -104.5 44.5s-41.5 67.5 -41.5 113.5v279h65v-263c0 -73.333 34 -110 102 -110c30.667 0 60.5 4.83301 89.5 14.5
s55.167 22.834 78.5 39.501v319h65v-750z" />
    <glyph glyph-name="Oslash" unicode="&#xd8;" horiz-adv-x="722" 
d="M68 0v750h65v-692h195v692h65v-692h195v692h65l-1 -750h-584z" />
    <glyph glyph-name="Oslash" unicode="&#x428;" horiz-adv-x="722" 
d="M68 0v750h65v-692h195v692h65v-692h195v692h65l-1 -750h-584z" />
    <glyph glyph-name="Ugrave" unicode="&#xd9;" horiz-adv-x="722" 
d="M635 0h-567v750h65v-692h195v692h65v-692h195v692h65v-692h47v-166h-65v108z" />
    <glyph glyph-name="Ugrave" unicode="&#x429;" horiz-adv-x="722" 
d="M635 0h-567v750h65v-692h195v692h65v-692h195v692h65v-692h47v-166h-65v108z" />
    <glyph glyph-name="Uacute" unicode="&#xda;" horiz-adv-x="556" 
d="M190 364v-305.999h57c69.333 0 118.333 8.66699 147 26c38.667 23.333 58 67 58 131c0 55.333 -14.333 94.666 -43 117.999c-26 20.667 -66.667 31 -122 31h-97zM125 692.001h-104.998v58h170v-328h69c90 0 154.333 -13.667 193 -41c43.333 -30.667 65 -84 65 -160
c0 -39.333 -4.83301 -72.5 -14.5 -99.5s-25.834 -49.833 -48.501 -68.5c-16 -14 -37.667 -25.667 -65 -35c-34.667 -12 -67.334 -18 -98.001 -18h-166v692z" />
    <glyph glyph-name="Uacute" unicode="&#x42a;" horiz-adv-x="556" 
d="M190 364v-305.999h57c69.333 0 118.333 8.66699 147 26c38.667 23.333 58 67 58 131c0 55.333 -14.333 94.666 -43 117.999c-26 20.667 -66.667 31 -122 31h-97zM125 692.001h-104.998v58h170v-328h69c90 0 154.333 -13.667 193 -41c43.333 -30.667 65 -84 65 -160
c0 -39.333 -4.83301 -72.5 -14.5 -99.5s-25.834 -49.833 -48.501 -68.5c-16 -14 -37.667 -25.667 -65 -35c-34.667 -12 -67.334 -18 -98.001 -18h-166v692z" />
    <glyph glyph-name="Ucircumflex" unicode="&#xdb;" horiz-adv-x="685" 
d="M69 0l0.00195312 750h65v-328h69c90 0 154.333 -13.667 193 -41c43.333 -30.667 65 -84 65 -160c0 -39.333 -4.83301 -72.5 -14.5 -99.5s-25.834 -49.833 -48.501 -68.5c-16 -14 -37.667 -25.667 -65 -35c-34.667 -12 -67.334 -18 -98.001 -18h-166zM134.002 364
v-305.999h57c69.333 0 118.333 8.66699 147 26c38.667 23.333 58 67 58 131c0 55.333 -14.333 94.666 -43 117.999c-26 20.667 -66.667 31 -122 31h-97zM617.002 0.000976562h-65v750h65v-750z" />
    <glyph glyph-name="Ucircumflex" unicode="&#x42b;" horiz-adv-x="685" 
d="M69 0l0.00195312 750h65v-328h69c90 0 154.333 -13.667 193 -41c43.333 -30.667 65 -84 65 -160c0 -39.333 -4.83301 -72.5 -14.5 -99.5s-25.834 -49.833 -48.501 -68.5c-16 -14 -37.667 -25.667 -65 -35c-34.667 -12 -67.334 -18 -98.001 -18h-166zM134.002 364
v-305.999h57c69.333 0 118.333 8.66699 147 26c38.667 23.333 58 67 58 131c0 55.333 -14.333 94.666 -43 117.999c-26 20.667 -66.667 31 -122 31h-97zM617.002 0.000976562h-65v750h65v-750z" />
    <glyph glyph-name="Udieresis" unicode="&#xdc;" horiz-adv-x="500" 
d="M69 0l0.00195312 750h65v-328h69c90 0 154.333 -13.667 193 -41c43.333 -30.667 65 -84 65 -160c0 -39.333 -4.83301 -72.5 -14.5 -99.5s-25.834 -49.833 -48.501 -68.5c-16 -14 -37.667 -25.667 -65 -35c-34.667 -12 -67.334 -18 -98.001 -18h-166zM134.002 364
v-305.999h57c69.333 0 118.333 8.66699 147 26c38.667 23.333 58 67 58 131c0 55.333 -14.333 94.666 -43 117.999c-26 20.667 -66.667 31 -122 31h-97z" />
    <glyph glyph-name="Udieresis" unicode="&#x42c;" horiz-adv-x="500" 
d="M69 0l0.00195312 750h65v-328h69c90 0 154.333 -13.667 193 -41c43.333 -30.667 65 -84 65 -160c0 -39.333 -4.83301 -72.5 -14.5 -99.5s-25.834 -49.833 -48.501 -68.5c-16 -14 -37.667 -25.667 -65 -35c-34.667 -12 -67.334 -18 -98.001 -18h-166zM134.002 364
v-305.999h57c69.333 0 118.333 8.66699 147 26c38.667 23.333 58 67 58 131c0 55.333 -14.333 94.666 -43 117.999c-26 20.667 -66.667 31 -122 31h-97z" />
    <glyph glyph-name="Yacute" unicode="&#xdd;" horiz-adv-x="556" 
d="M428 422c0 80 -7.66699 141.666 -23 184.999c-24 68.667 -67 103 -129 103c-47.333 0 -83.333 -18 -108 -54c-22 -32 -33 -72.667 -33 -122h-65c0 67.333 17 122.333 51 165c36.667 46 87.667 69 153 69c88 0 149.333 -42.667 184 -128
c23.333 -57.333 35 -138.666 35 -243.999c0 -78 -2.66699 -137.333 -8 -178c-9.33301 -71.333 -28 -126 -56 -164c-35.333 -48 -86.333 -72 -153 -72c-69.333 0 -123.333 29.333 -162 88c-33.333 50.667 -50 112 -50 184h65c0 -56.667 9.33301 -103.667 28 -141
c24.667 -48.667 62 -73 112 -73c48 0 85 19 111 57c20 30 33.667 73 41 129c4.66699 36.667 7 82.667 7 138h-236v58h236z" />
    <glyph glyph-name="Yacute" unicode="&#x42d;" horiz-adv-x="556" 
d="M428 422c0 80 -7.66699 141.666 -23 184.999c-24 68.667 -67 103 -129 103c-47.333 0 -83.333 -18 -108 -54c-22 -32 -33 -72.667 -33 -122h-65c0 67.333 17 122.333 51 165c36.667 46 87.667 69 153 69c88 0 149.333 -42.667 184 -128
c23.333 -57.333 35 -138.666 35 -243.999c0 -78 -2.66699 -137.333 -8 -178c-9.33301 -71.333 -28 -126 -56 -164c-35.333 -48 -86.333 -72 -153 -72c-69.333 0 -123.333 29.333 -162 88c-33.333 50.667 -50 112 -50 184h65c0 -56.667 9.33301 -103.667 28 -141
c24.667 -48.667 62 -73 112 -73c48 0 85 19 111 57c20 30 33.667 73 41 129c4.66699 36.667 7 82.667 7 138h-236v58h236z" />
    <glyph glyph-name="Thorn" unicode="&#xde;" horiz-adv-x="722" 
d="M449 40c53.333 0 92 24.833 116 74.5s36 136.167 36 259.5c0 94 -6.33301 163.667 -19 209c-24 84.667 -70.667 127 -140 127c-64.667 0 -108.667 -41.333 -132 -124c-13.333 -48 -20 -116.333 -20 -205c0 -100 5.66699 -171 17 -213c22.667 -85.333 70 -128 142 -128z
M225 373l-92 0.00195312v-373h-65v750h65v-319h92c0 94 13.667 169 41 225c36.667 74.667 96.334 112 179.001 112c68 0 119.667 -23 155 -69c28 -36.667 47 -90.334 57 -161.001c6 -43.333 9 -103 9 -179c0 -74.667 -3.33301 -131.334 -10 -170.001
c-10.667 -64 -30.667 -112.667 -60 -146c-35.333 -40.667 -86.333 -61 -153 -61c-64 0 -113.333 21.667 -148 65c-28.667 35.333 -48.334 86.333 -59.001 153c-7.33301 45.333 -11 103 -11 173z" />
    <glyph glyph-name="Thorn" unicode="&#x42e;" horiz-adv-x="722" 
d="M449 40c53.333 0 92 24.833 116 74.5s36 136.167 36 259.5c0 94 -6.33301 163.667 -19 209c-24 84.667 -70.667 127 -140 127c-64.667 0 -108.667 -41.333 -132 -124c-13.333 -48 -20 -116.333 -20 -205c0 -100 5.66699 -171 17 -213c22.667 -85.333 70 -128 142 -128z
M225 373l-92 0.00195312v-373h-65v750h65v-319h92c0 94 13.667 169 41 225c36.667 74.667 96.334 112 179.001 112c68 0 119.667 -23 155 -69c28 -36.667 47 -90.334 57 -161.001c6 -43.333 9 -103 9 -179c0 -74.667 -3.33301 -131.334 -10 -170.001
c-10.667 -64 -30.667 -112.667 -60 -146c-35.333 -40.667 -86.333 -61 -153 -61c-64 0 -113.333 21.667 -148 65c-28.667 35.333 -48.334 86.333 -59.001 153c-7.33301 45.333 -11 103 -11 173z" />
    <glyph glyph-name="germandbls" unicode="&#xdf;" horiz-adv-x="500" 
d="M305 353c-68 0 -112.834 -9 -134.501 -27s-32.5 -44.667 -32.5 -80c0 -48.667 -1.33301 -88.667 -4 -120c-4.66699 -56 -13.334 -98 -26.001 -126h-71v9c13.333 7.33301 22.333 27.666 27 60.999s7 68 7 104v23c0 53.333 5.66699 92.666 17 117.999
c14.667 33.333 42.334 55 83.001 65c-36.667 8.66699 -64.167 30.334 -82.5 65.001s-27.5 72.334 -27.5 113.001c0 71.333 21.333 122.333 64 153c36.667 26 92.334 39 167.001 39h145v-750h-65v353h-67zM371.999 692h-94c-53.333 0 -91.333 -9.33301 -114 -28
c-25.333 -21.333 -38 -58.333 -38 -111c0 -56.667 19 -97 57 -121c22.667 -14 47.667 -21 75 -21h114v281z" />
    <glyph glyph-name="germandbls" unicode="&#x42f;" horiz-adv-x="500" 
d="M305 353c-68 0 -112.834 -9 -134.501 -27s-32.5 -44.667 -32.5 -80c0 -48.667 -1.33301 -88.667 -4 -120c-4.66699 -56 -13.334 -98 -26.001 -126h-71v9c13.333 7.33301 22.333 27.666 27 60.999s7 68 7 104v23c0 53.333 5.66699 92.666 17 117.999
c14.667 33.333 42.334 55 83.001 65c-36.667 8.66699 -64.167 30.334 -82.5 65.001s-27.5 72.334 -27.5 113.001c0 71.333 21.333 122.333 64 153c36.667 26 92.334 39 167.001 39h145v-750h-65v353h-67zM371.999 692h-94c-53.333 0 -91.333 -9.33301 -114 -28
c-25.333 -21.333 -38 -58.333 -38 -111c0 -56.667 19 -97 57 -121c22.667 -14 47.667 -21 75 -21h114v281z" />
    <glyph glyph-name="agrave" unicode="&#xe0;" horiz-adv-x="389" 
d="M271 201l-0.000976562 97.001c-18.667 -10 -42.334 -20.833 -71.001 -32.5s-43.334 -17.834 -44.001 -18.501c-29.333 -12.667 -48.666 -26.5 -57.999 -41.5s-14 -39.167 -14 -72.5c0 -29.333 5.83301 -52.666 17.5 -69.999s31.5 -26 59.5 -26
c18.667 0 34.834 3.5 48.501 10.5s25.334 17.833 35.001 32.5s16.5 32.167 20.5 52.5s6 43.166 6 68.499zM96.999 413.001l-56.002 0.00292969c0 49.333 12.5 87.166 37.5 113.499s61.5 39.5 109.5 39.5c24.667 0 46.834 -3.33301 66.501 -10s35.334 -17.334 47.001 -32.001
s19.167 -30.167 22.5 -46.5s5 -36.833 5 -61.5v-339c0 -16.667 2.33301 -27 7 -31s15.667 -6 33 -6v-42c-5.33301 -2.66699 -10.666 -4.33398 -15.999 -5.00098s-12 -1 -20 -1c-9.33301 0 -18.666 1 -27.999 3c-12.667 4.66699 -21 13 -25 25
c-0.666992 2 -2.66699 10.333 -6 25c-14.667 -19.333 -32.667 -34 -54 -44s-44.333 -15 -69 -15c-46.667 0 -80 15 -100 45c-16.667 25.333 -25 62.333 -25 111c0 34 5.66699 62.5 17 85.5s31 41.833 59 56.5c12.667 6 44 18.667 94 38c22.667 8.66699 41.667 16.667 57 24
c8.66699 4 13.667 10.167 15 18.5s2 20.5 2 36.5c0 10.667 -0.166992 20.5 -0.5 29.5s-1.5 18.833 -3.5 29.5c-4.66699 18 -12.834 31.667 -24.501 41s-29.834 14 -54.501 14c-36 0 -60 -10.667 -72 -32c-5.33301 -8.66699 -11.333 -32 -18 -70z" />
    <glyph glyph-name="agrave" unicode="&#x430;" horiz-adv-x="389" 
d="M271 201l-0.000976562 97.001c-18.667 -10 -42.334 -20.833 -71.001 -32.5s-43.334 -17.834 -44.001 -18.501c-29.333 -12.667 -48.666 -26.5 -57.999 -41.5s-14 -39.167 -14 -72.5c0 -29.333 5.83301 -52.666 17.5 -69.999s31.5 -26 59.5 -26
c18.667 0 34.834 3.5 48.501 10.5s25.334 17.833 35.001 32.5s16.5 32.167 20.5 52.5s6 43.166 6 68.499zM96.999 413.001l-56.002 0.00292969c0 49.333 12.5 87.166 37.5 113.499s61.5 39.5 109.5 39.5c24.667 0 46.834 -3.33301 66.501 -10s35.334 -17.334 47.001 -32.001
s19.167 -30.167 22.5 -46.5s5 -36.833 5 -61.5v-339c0 -16.667 2.33301 -27 7 -31s15.667 -6 33 -6v-42c-5.33301 -2.66699 -10.666 -4.33398 -15.999 -5.00098s-12 -1 -20 -1c-9.33301 0 -18.666 1 -27.999 3c-12.667 4.66699 -21 13 -25 25
c-0.666992 2 -2.66699 10.333 -6 25c-14.667 -19.333 -32.667 -34 -54 -44s-44.333 -15 -69 -15c-46.667 0 -80 15 -100 45c-16.667 25.333 -25 62.333 -25 111c0 34 5.66699 62.5 17 85.5s31 41.833 59 56.5c12.667 6 44 18.667 94 38c22.667 8.66699 41.667 16.667 57 24
c8.66699 4 13.667 10.167 15 18.5s2 20.5 2 36.5c0 10.667 -0.166992 20.5 -0.5 29.5s-1.5 18.833 -3.5 29.5c-4.66699 18 -12.834 31.667 -24.501 41s-29.834 14 -54.501 14c-36 0 -60 -10.667 -72 -32c-5.33301 -8.66699 -11.333 -32 -18 -70z" />
    <glyph glyph-name="aacute" unicode="&#xe1;" 
d="M220 37c50.667 0 84.999 29.668 102.999 89.001c10 33.333 15 83.666 15 150.999c0 68.667 -5 119 -15 151c-18 58 -53.333 87 -106 87c-45.333 0 -76.666 -28.333 -93.999 -85c-10.667 -34.667 -16 -82 -16 -142c0 -75.333 3.66699 -127.333 11 -156
c16 -63.333 50 -95 102 -95zM218.999 717.001c41.333 8.66699 69.499 16.833 84.499 24.5s22.5 18.834 22.5 33.501h47c0 -32.667 -9.66699 -56.834 -29 -72.501s-53.166 -29.167 -101.499 -40.5s-83.166 -33.333 -104.499 -66
c-14.667 -22.667 -25.334 -54.334 -32.001 -95.001c12.667 19.333 29 35 49 47s43 18 69 18c68.667 0 116.667 -32.667 144 -98c18.667 -44.667 28 -108 28 -190c0 -85.333 -9 -149.666 -27 -192.999c-27.333 -66 -76.666 -99 -147.999 -99
c-74.667 0 -124.334 34.667 -149.001 104c-15.333 44 -23 120.333 -23 229c0 74 3.33301 133.333 10 178c9.33301 60.667 25.333 108.667 48 144c26.667 40.667 64 66 112 76z" />
    <glyph glyph-name="aacute" unicode="&#x431;" 
d="M220 37c50.667 0 84.999 29.668 102.999 89.001c10 33.333 15 83.666 15 150.999c0 68.667 -5 119 -15 151c-18 58 -53.333 87 -106 87c-45.333 0 -76.666 -28.333 -93.999 -85c-10.667 -34.667 -16 -82 -16 -142c0 -75.333 3.66699 -127.333 11 -156
c16 -63.333 50 -95 102 -95zM218.999 717.001c41.333 8.66699 69.499 16.833 84.499 24.5s22.5 18.834 22.5 33.501h47c0 -32.667 -9.66699 -56.834 -29 -72.501s-53.166 -29.167 -101.499 -40.5s-83.166 -33.333 -104.499 -66
c-14.667 -22.667 -25.334 -54.334 -32.001 -95.001c12.667 19.333 29 35 49 47s43 18 69 18c68.667 0 116.667 -32.667 144 -98c18.667 -44.667 28 -108 28 -190c0 -85.333 -9 -149.666 -27 -192.999c-27.333 -66 -76.666 -99 -147.999 -99
c-74.667 0 -124.334 34.667 -149.001 104c-15.333 44 -23 120.333 -23 229c0 74 3.33301 133.333 10 178c9.33301 60.667 25.333 108.667 48 144c26.667 40.667 64 66 112 76z" />
    <glyph glyph-name="acircumflex" unicode="&#xe2;" horiz-adv-x="402" 
d="M151 263h-33.001v-211h43c48 0 81.333 6.33301 100 19c23.333 16 35 46.333 35 91c0 44 -14 73 -42 87c-19.333 9.33301 -53.666 14 -102.999 14zM117.999 314l32 0.000976562c45.333 0 77 5.33301 95 16c23.333 14 35 41.667 35 83c0 31.333 -7.66699 53.666 -23 66.999
s-52.333 20 -111 20h-28v-186zM136.999 0.000976562h-77v552h123c31.333 0 54.833 -2.33301 70.5 -7s30.167 -12.834 43.5 -24.501s23.5 -26.5 30.5 -44.5s10.5 -37.667 10.5 -59c0 -30 -6 -56 -18 -78s-31.333 -38 -58 -48c31.333 -8 54.5 -23.667 69.5 -47
s22.5 -51.666 22.5 -84.999c0 -64 -20.667 -108 -62 -132c-31.333 -18 -83 -27 -155 -27z" />
    <glyph glyph-name="acircumflex" unicode="&#x432;" horiz-adv-x="402" 
d="M151 263h-33.001v-211h43c48 0 81.333 6.33301 100 19c23.333 16 35 46.333 35 91c0 44 -14 73 -42 87c-19.333 9.33301 -53.666 14 -102.999 14zM117.999 314l32 0.000976562c45.333 0 77 5.33301 95 16c23.333 14 35 41.667 35 83c0 31.333 -7.66699 53.666 -23 66.999
s-52.333 20 -111 20h-28v-186zM136.999 0.000976562h-77v552h123c31.333 0 54.833 -2.33301 70.5 -7s30.167 -12.834 43.5 -24.501s23.5 -26.5 30.5 -44.5s10.5 -37.667 10.5 -59c0 -30 -6 -56 -18 -78s-31.333 -38 -58 -48c31.333 -8 54.5 -23.667 69.5 -47
s22.5 -51.666 22.5 -84.999c0 -64 -20.667 -108 -62 -132c-31.333 -18 -83 -27 -155 -27z" />
    <glyph glyph-name="atilde" unicode="&#xe3;" horiz-adv-x="360" 
d="M123 0h-57v552h258v-52h-201v-500z" />
    <glyph glyph-name="atilde" unicode="&#x433;" horiz-adv-x="360" 
d="M123 0h-57v552h258v-52h-201v-500z" />
    <glyph glyph-name="adieresis" unicode="&#xe4;" 
d="M60 52c24.667 16.667 37 65.667 37 147v353h282v-500h35v-160h-57v108h-273v-108h-57v160h33zM321 52v448h-166v-309c0 -33.333 -2 -60.5 -6 -81.5s-11.667 -40.167 -23 -57.5h195z" />
    <glyph glyph-name="adieresis" unicode="&#x434;" 
d="M60 52c24.667 16.667 37 65.667 37 147v353h282v-500h35v-160h-57v108h-273v-108h-57v160h33zM321 52v448h-166v-309c0 -33.333 -2 -60.5 -6 -81.5s-11.667 -40.167 -23 -57.5h195z" />
    <glyph glyph-name="aring" unicode="&#xe5;" horiz-adv-x="389" 
d="M352 335v-55.998h-259v-34c0 -58.667 5 -103.334 15 -134.001c16 -49.333 45.667 -74 89 -74c37.333 0 63.666 15.333 78.999 46c12 23.333 18 55.666 18 96.999h56c0 -56.667 -11.333 -101.667 -34 -135c-26.667 -39.333 -66.667 -59 -120 -59
c-67.333 0 -113.333 33.667 -138 101c-15.333 42 -23 104.333 -23 187s7.33301 145 22 187c24.667 70 70.334 105 137.001 105c58 0 100.333 -25.333 127 -76c20.667 -39.333 31 -91 31 -155zM93 330.002h201c0 50.667 -5 90 -15 118c-16 44.667 -44.667 67 -86 67
c-39.333 0 -67.333 -22.667 -84 -68c-10.667 -29.333 -16 -68.333 -16 -117z" />
    <glyph glyph-name="aring" unicode="&#x435;" horiz-adv-x="389" 
d="M352 335v-55.998h-259v-34c0 -58.667 5 -103.334 15 -134.001c16 -49.333 45.667 -74 89 -74c37.333 0 63.666 15.333 78.999 46c12 23.333 18 55.666 18 96.999h56c0 -56.667 -11.333 -101.667 -34 -135c-26.667 -39.333 -66.667 -59 -120 -59
c-67.333 0 -113.333 33.667 -138 101c-15.333 42 -23 104.333 -23 187s7.33301 145 22 187c24.667 70 70.334 105 137.001 105c58 0 100.333 -25.333 127 -76c20.667 -39.333 31 -91 31 -155zM93 330.002h201c0 50.667 -5 90 -15 118c-16 44.667 -44.667 67 -86 67
c-39.333 0 -67.333 -22.667 -84 -68c-10.667 -29.333 -16 -68.333 -16 -117z" />
    <glyph glyph-name="ae" unicode="&#xe6;" horiz-adv-x="593" 
d="M326 552v-260l179 260h73l-150 -206l153 -346h-61l-133 287l-61 -85v-202h-58v202l-61 85l-133 -287h-61l153 346l-150 206h73l179 -260v260h58z" />
    <glyph glyph-name="ae" unicode="&#x436;" horiz-adv-x="593" 
d="M326 552v-260l179 260h73l-150 -206l153 -346h-61l-133 287l-61 -85v-202h-58v202l-61 85l-133 -287h-61l153 346l-150 206h73l179 -260v260h58z" />
    <glyph glyph-name="ccedilla" unicode="&#xe7;" horiz-adv-x="389" 
d="M174 263l-35.001 0.00488281v49h16c80 0 120 35.667 120 107c0 26 -7 48 -21 66c-16 20.667 -37.333 31 -64 31c-28 0 -49.5 -10 -64.5 -30s-22.5 -44.333 -22.5 -73h-56c0 42 11.667 77 35 105c26 31.333 60.667 47 104 47c45.333 0 81.5 -14.167 108.5 -42.5
s40.5 -63.833 40.5 -106.5c0 -28.667 -7.5 -53.834 -22.5 -75.501s-36.167 -37.834 -63.5 -48.501c36.667 -12.667 63.334 -32.334 80.001 -59.001c14 -22.667 21 -50.334 21 -83.001c0 -51.333 -14.5 -91.166 -43.5 -119.499s-67.167 -42.5 -114.5 -42.5
c-48 0 -85 11.333 -111 34c-31.333 27.333 -47 68.666 -47 123.999h58c0 -32.667 8 -58.834 24 -78.501s40.667 -29.5 74 -29.5c32 0 56.667 10.667 74 32s26 48.333 26 81c0 28.667 -7 52.667 -21 72c-19.333 26.667 -51 40 -95 40z" />
    <glyph glyph-name="ccedilla" unicode="&#x437;" horiz-adv-x="389" 
d="M174 263l-35.001 0.00488281v49h16c80 0 120 35.667 120 107c0 26 -7 48 -21 66c-16 20.667 -37.333 31 -64 31c-28 0 -49.5 -10 -64.5 -30s-22.5 -44.333 -22.5 -73h-56c0 42 11.667 77 35 105c26 31.333 60.667 47 104 47c45.333 0 81.5 -14.167 108.5 -42.5
s40.5 -63.833 40.5 -106.5c0 -28.667 -7.5 -53.834 -22.5 -75.501s-36.167 -37.834 -63.5 -48.501c36.667 -12.667 63.334 -32.334 80.001 -59.001c14 -22.667 21 -50.334 21 -83.001c0 -51.333 -14.5 -91.166 -43.5 -119.499s-67.167 -42.5 -114.5 -42.5
c-48 0 -85 11.333 -111 34c-31.333 27.333 -47 68.666 -47 123.999h58c0 -32.667 8 -58.834 24 -78.501s40.667 -29.5 74 -29.5c32 0 56.667 10.667 74 32s26 48.333 26 81c0 28.667 -7 52.667 -21 72c-19.333 26.667 -51 40 -95 40z" />
    <glyph glyph-name="egrave" unicode="&#xe8;" 
d="M307 552h74v-552h-58v454l-188 -454h-72v552h58v-455z" />
    <glyph glyph-name="egrave" unicode="&#x438;" 
d="M307 552h74v-552h-58v454l-188 -454h-72v552h58v-455z" />
    <glyph glyph-name="eacute" unicode="&#xe9;" 
d="M79 738l39.999 0.000976562c4.66699 -26.667 16.334 -46.834 35.001 -60.501s42 -20.5 70 -20.5s51.333 6.83301 70 20.5s30.667 33.834 36 60.501h37c-4 -40.667 -19.167 -71.834 -45.5 -93.501s-60.5 -32.5 -102.5 -32.5c-40 0 -72.333 11 -97 33s-39 53 -43 93z
M306.999 552.001h74v-552h-58v454l-188 -454h-72v552h58v-455z" />
    <glyph glyph-name="eacute" unicode="&#x439;" 
d="M79 738l39.999 0.000976562c4.66699 -26.667 16.334 -46.834 35.001 -60.501s42 -20.5 70 -20.5s51.333 6.83301 70 20.5s30.667 33.834 36 60.501h37c-4 -40.667 -19.167 -71.834 -45.5 -93.501s-60.5 -32.5 -102.5 -32.5c-40 0 -72.333 11 -97 33s-39 53 -43 93z
M306.999 552.001h74v-552h-58v454l-188 -454h-72v552h58v-455z" />
    <glyph glyph-name="ecircumflex" unicode="&#xea;" horiz-adv-x="389" 
d="M120 0h-58v552h58v-260l179 260h73l-150 -206l153 -346h-61l-133 287l-61 -85v-202z" />
    <glyph glyph-name="ecircumflex" unicode="&#x43a;" horiz-adv-x="389" 
d="M120 0h-58v552h58v-260l179 260h73l-150 -206l153 -346h-61l-133 287l-61 -85v-202z" />
    <glyph glyph-name="edieresis" unicode="&#xeb;" 
d="M155 500v-309.001c0 -82 -11 -137.667 -33 -167c-19.333 -25.333 -48.333 -38 -87 -38v60c26.667 0 43.667 10.833 51 32.5s11 61.834 11 120.501v353h282v-552h-58v500h-166z" />
    <glyph glyph-name="edieresis" unicode="&#x43b;" 
d="M155 500v-309.001c0 -82 -11 -137.667 -33 -167c-19.333 -25.333 -48.333 -38 -87 -38v60c26.667 0 43.667 10.833 51 32.5s11 61.834 11 120.501v353h282v-552h-58v500h-166z" />
    <glyph glyph-name="igrave" unicode="&#xec;" horiz-adv-x="593" 
d="M122 0h-57v552h96l135 -464l141 464h92v-552h-57v490l-148 -490h-54l-146 490z" />
    <glyph glyph-name="igrave" unicode="&#x43c;" horiz-adv-x="593" 
d="M122 0h-57v552h96l135 -464l141 464h92v-552h-57v490l-148 -490h-54l-146 490z" />
    <glyph glyph-name="iacute" unicode="&#xed;" 
d="M123 0h-58v552h58v-231h198v231h58v-552h-58v270h-198v-270z" />
    <glyph glyph-name="iacute" unicode="&#x43d;" 
d="M123 0h-58v552h58v-231h198v231h58v-552h-58v270h-198v-270z" />
    <glyph glyph-name="icircumflex" unicode="&#xee;" 
d="M221 -14c-74 0 -123.668 34.332 -149.001 102.999c-15.333 41.333 -23 108 -23 200c0 104 17.333 178 52 222c28.667 36.667 69.667 55 123 55c68.667 0 116.667 -32.667 144 -98c18.667 -44.667 28 -108 28 -190c0 -85.333 -9 -149.666 -27 -192.999
c-27.333 -66 -76.666 -99 -147.999 -99zM219.999 36.999c50.667 0 84.999 29.668 102.999 89.001c10 33.333 15 83.666 15 150.999c0 68.667 -5 119 -15 151c-18 58 -53.333 87 -106 87c-45.333 0 -76.666 -28.333 -93.999 -85c-10.667 -34.667 -16 -82 -16 -142
c0 -75.333 3.66699 -127.333 11 -156c16 -63.333 50 -95 102 -95z" />
    <glyph glyph-name="icircumflex" unicode="&#x43e;" 
d="M221 -14c-74 0 -123.668 34.332 -149.001 102.999c-15.333 41.333 -23 108 -23 200c0 104 17.333 178 52 222c28.667 36.667 69.667 55 123 55c68.667 0 116.667 -32.667 144 -98c18.667 -44.667 28 -108 28 -190c0 -85.333 -9 -149.666 -27 -192.999
c-27.333 -66 -76.666 -99 -147.999 -99zM219.999 36.999c50.667 0 84.999 29.668 102.999 89.001c10 33.333 15 83.666 15 150.999c0 68.667 -5 119 -15 151c-18 58 -53.333 87 -106 87c-45.333 0 -76.666 -28.333 -93.999 -85c-10.667 -34.667 -16 -82 -16 -142
c0 -75.333 3.66699 -127.333 11 -156c16 -63.333 50 -95 102 -95z" />
    <glyph glyph-name="idieresis" unicode="&#xef;" 
d="M123 0h-58v552h314v-552h-58v501h-198v-501z" />
    <glyph glyph-name="idieresis" unicode="&#x43f;" 
d="M123 0h-58v552h314v-552h-58v501h-198v-501z" />
    <glyph glyph-name="eth" unicode="&#xf0;" 
d="M116 279c0 -73.333 3.66699 -124 11 -152c16 -60 49.667 -90 101 -90c47.333 0 79 29.667 95 89c8.66699 32 13 80.333 13 145c0 66 -4.33301 116 -13 150c-16 62.667 -47 94 -93 94c-52 0 -86 -28.667 -102 -86c-8 -29.333 -12 -79.333 -12 -150zM118 45v-234.999h-60
v742h58v-50c14 20 30.5 35.667 49.5 47s39.833 17 62.5 17c66.667 0 113 -31 139 -93c18 -43.333 27 -104.333 27 -183c0 -90.667 -6.66699 -156.334 -20 -197.001c-23.333 -71.333 -70.333 -107 -141 -107c-48.667 0 -87 19.667 -115 59z" />
    <glyph glyph-name="eth" unicode="&#x440;" 
d="M116 279c0 -73.333 3.66699 -124 11 -152c16 -60 49.667 -90 101 -90c47.333 0 79 29.667 95 89c8.66699 32 13 80.333 13 145c0 66 -4.33301 116 -13 150c-16 62.667 -47 94 -93 94c-52 0 -86 -28.667 -102 -86c-8 -29.333 -12 -79.333 -12 -150zM118 45v-234.999h-60
v742h58v-50c14 20 30.5 35.667 49.5 47s39.833 17 62.5 17c66.667 0 113 -31 139 -93c18 -43.333 27 -104.333 27 -183c0 -90.667 -6.66699 -156.334 -20 -197.001c-23.333 -71.333 -70.333 -107 -141 -107c-48.667 0 -87 19.667 -115 59z" />
    <glyph glyph-name="ntilde" unicode="&#xf1;" horiz-adv-x="389" 
d="M300 183l58 -0.000976562c0 -57.333 -11 -103 -33 -137c-26 -40 -66 -60 -120 -60c-50 0 -88.333 16 -115 48c-22 26 -37 64 -45 114c-5.33301 33.333 -8 77 -8 131c0 82.667 8.33301 145.334 25 188.001c26 66 73 99 141 99c46.667 0 84 -18 112 -54
c25.333 -32.667 38 -73.667 38 -123h-57c0 35.333 -8.66699 65.166 -26 89.499s-41 36.5 -71 36.5c-47.333 0 -78.333 -30 -93 -90c-7.33301 -30 -11 -82 -11 -156c0 -65.333 4.33301 -113.666 13 -144.999c16 -58 48.667 -87 98 -87c35.333 0 60.333 16.333 75 49
c8 18.667 14.333 51 19 97z" />
    <glyph glyph-name="ntilde" unicode="&#x441;" horiz-adv-x="389" 
d="M300 183l58 -0.000976562c0 -57.333 -11 -103 -33 -137c-26 -40 -66 -60 -120 -60c-50 0 -88.333 16 -115 48c-22 26 -37 64 -45 114c-5.33301 33.333 -8 77 -8 131c0 82.667 8.33301 145.334 25 188.001c26 66 73 99 141 99c46.667 0 84 -18 112 -54
c25.333 -32.667 38 -73.667 38 -123h-57c0 35.333 -8.66699 65.166 -26 89.499s-41 36.5 -71 36.5c-47.333 0 -78.333 -30 -93 -90c-7.33301 -30 -11 -82 -11 -156c0 -65.333 4.33301 -113.666 13 -144.999c16 -58 48.667 -87 98 -87c35.333 0 60.333 16.333 75 49
c8 18.667 14.333 51 19 97z" />
    <glyph glyph-name="ograve" unicode="&#xf2;" horiz-adv-x="351" 
d="M147 500h-127v52h312v-52h-127v-500h-58v500z" />
    <glyph glyph-name="ograve" unicode="&#x442;" horiz-adv-x="351" 
d="M147 500h-127v52h312v-52h-127v-500h-58v500z" />
    <glyph glyph-name="oacute" unicode="&#xf3;" horiz-adv-x="389" 
d="M28 -188l-0.00195312 51h28c18.667 0 33.667 2 45 6s20.166 13.167 26.499 27.5s12.166 29.833 17.499 46.5s10.333 35 15 55l-143 554h61l114 -447l122 447h59l-150 -545c-13.333 -52 -23 -85.667 -29 -101c-15.333 -40.667 -34.666 -68.334 -57.999 -83.001
c-8.66699 -4.66699 -18.167 -8.16699 -28.5 -10.5s-20.166 -3.5 -29.499 -3.5s-18.166 0.333008 -26.499 1s-16.166 1.33398 -23.499 2.00098z" />
    <glyph glyph-name="oacute" unicode="&#x443;" horiz-adv-x="389" 
d="M28 -188l-0.00195312 51h28c18.667 0 33.667 2 45 6s20.166 13.167 26.499 27.5s12.166 29.833 17.499 46.5s10.333 35 15 55l-143 554h61l114 -447l122 447h59l-150 -545c-13.333 -52 -23 -85.667 -29 -101c-15.333 -40.667 -34.666 -68.334 -57.999 -83.001
c-8.66699 -4.66699 -18.167 -8.16699 -28.5 -10.5s-20.166 -3.5 -29.499 -3.5s-18.166 0.333008 -26.499 1s-16.166 1.33398 -23.499 2.00098z" />
    <glyph glyph-name="ocircumflex" unicode="&#xf4;" horiz-adv-x="704" 
d="M658 290c0 -90.667 -6.66895 -156.333 -20.002 -197c-23.333 -71.333 -70.333 -107 -141 -107c-48.667 0 -87 19.667 -115 59v-235h-60v235c-28 -39.333 -66.333 -59 -115 -59c-70.667 0 -117.667 35.667 -141 107c-13.333 40 -20 105.667 -20 197
c0 79.333 8.66699 140 26 182c26 62.667 72.667 94 140 94c22.667 0 43.334 -5.5 62.001 -16.5s35.334 -26.833 50.001 -47.5v248h56v-248c14 20 30.5 35.667 49.5 47s39.833 17 62.5 17c66.667 0 113 -31 139 -93c18 -43.333 27 -104.333 27 -183zM599.998 271.001
c0 66 -4.33301 116 -13 150c-16 62.667 -47 94 -93 94c-52 0 -86 -28.667 -102 -86c-8 -29.333 -12 -79.333 -12 -150c0 -73.333 3.66699 -124 11 -152c16 -60 49.667 -90 101 -90c47.333 0 79 29.667 95 89c8.66699 32 13 80.333 13 145zM323.998 279.001
c0 72.667 -3.66699 122.333 -11 149c-16 58 -50.333 87 -103 87c-46 0 -77 -31.333 -93 -94c-8.66699 -33.333 -13 -83.333 -13 -150c0 -64 4.33301 -112 13 -144c16 -60 47.667 -90 95 -90c50.667 0 84 29.667 100 89c8 30 12 81 12 153z" />
    <glyph glyph-name="ocircumflex" unicode="&#x444;" horiz-adv-x="704" 
d="M658 290c0 -90.667 -6.66895 -156.333 -20.002 -197c-23.333 -71.333 -70.333 -107 -141 -107c-48.667 0 -87 19.667 -115 59v-235h-60v235c-28 -39.333 -66.333 -59 -115 -59c-70.667 0 -117.667 35.667 -141 107c-13.333 40 -20 105.667 -20 197
c0 79.333 8.66699 140 26 182c26 62.667 72.667 94 140 94c22.667 0 43.334 -5.5 62.001 -16.5s35.334 -26.833 50.001 -47.5v248h56v-248c14 20 30.5 35.667 49.5 47s39.833 17 62.5 17c66.667 0 113 -31 139 -93c18 -43.333 27 -104.333 27 -183zM599.998 271.001
c0 66 -4.33301 116 -13 150c-16 62.667 -47 94 -93 94c-52 0 -86 -28.667 -102 -86c-8 -29.333 -12 -79.333 -12 -150c0 -73.333 3.66699 -124 11 -152c16 -60 49.667 -90 101 -90c47.333 0 79 29.667 95 89c8.66699 32 13 80.333 13 145zM323.998 279.001
c0 72.667 -3.66699 122.333 -11 149c-16 58 -50.333 87 -103 87c-46 0 -77 -31.333 -93 -94c-8.66699 -33.333 -13 -83.333 -13 -150c0 -64 4.33301 -112 13 -144c16 -60 47.667 -90 95 -90c50.667 0 84 29.667 100 89c8 30 12 81 12 153z" />
    <glyph glyph-name="otilde" unicode="&#xf5;" horiz-adv-x="389" 
d="M311 0l-118 234l-117 -234h-63l145 289l-135 263h65l105 -213l107 213h67l-138 -263l147 -289h-65z" />
    <glyph glyph-name="otilde" unicode="&#x445;" horiz-adv-x="389" 
d="M311 0l-118 234l-117 -234h-63l145 289l-135 263h65l105 -213l107 213h67l-138 -263l147 -289h-65z" />
    <glyph glyph-name="odieresis" unicode="&#xf6;" 
d="M357 0h-292v552h58v-500h198v500h58v-500h35v-160h-57v108z" />
    <glyph glyph-name="odieresis" unicode="&#x446;" 
d="M357 0h-292v552h58v-500h198v500h58v-500h35v-160h-57v108z" />
    <glyph glyph-name="divide" unicode="&#xf7;" horiz-adv-x="426" 
d="M361 0h-58v268c-23.333 -13.333 -44.833 -23.5 -64.5 -30.5s-42.5 -10.5 -68.5 -10.5c-32 0 -58.833 11.167 -80.5 33.5s-32.5 50.833 -32.5 85.5v206h58v-195c0 -23.333 6.16699 -41.833 18.5 -55.5s29.5 -20.5 51.5 -20.5s42.667 3.16699 62 9.5s38 15.833 56 28.5v233
h58v-552z" />
    <glyph glyph-name="divide" unicode="&#x447;" horiz-adv-x="426" 
d="M361 0h-58v268c-23.333 -13.333 -44.833 -23.5 -64.5 -30.5s-42.5 -10.5 -68.5 -10.5c-32 0 -58.833 11.167 -80.5 33.5s-32.5 50.833 -32.5 85.5v206h58v-195c0 -23.333 6.16699 -41.833 18.5 -55.5s29.5 -20.5 51.5 -20.5s42.667 3.16699 62 9.5s38 15.833 56 28.5v233
h58v-552z" />
    <glyph glyph-name="oslash" unicode="&#xf8;" horiz-adv-x="574" 
d="M65 0v552h58v-500h135v500h58v-500h135v500h58v-552h-444z" />
    <glyph glyph-name="oslash" unicode="&#x448;" horiz-adv-x="574" 
d="M65 0v552h58v-500h135v500h58v-500h135v500h58v-552h-444z" />
    <glyph glyph-name="ugrave" unicode="&#xf9;" horiz-adv-x="574" 
d="M487 0h-422v552h58v-500h135v500h58v-500h135v500h58v-500h35v-160h-57v108z" />
    <glyph glyph-name="ugrave" unicode="&#x449;" horiz-adv-x="574" 
d="M487 0h-422v552h58v-500h135v500h58v-500h135v500h58v-500h35v-160h-57v108z" />
    <glyph glyph-name="uacute" unicode="&#xfa;" 
d="M178 263v-211h24c53.333 0 90 5.33301 110 16c28.667 15.333 43 46.333 43 93c0 40 -10.667 67.667 -32 83c-18 12.667 -48.333 19 -91 19h-54zM120 500h-100.001v52h158v-237h42c66.667 0 114.667 -10.333 144 -31c32.667 -23.333 49 -63 49 -119
c0 -28 -3.83301 -52.667 -11.5 -74s-19.667 -38.833 -36 -52.5s-36.666 -23.5 -60.999 -29.5s-44.5 -9 -60.5 -9h-124v500z" />
    <glyph glyph-name="uacute" unicode="&#x44a;" 
d="M178 263v-211h24c53.333 0 90 5.33301 110 16c28.667 15.333 43 46.333 43 93c0 40 -10.667 67.667 -32 83c-18 12.667 -48.333 19 -91 19h-54zM120 500h-100.001v52h158v-237h42c66.667 0 114.667 -10.333 144 -31c32.667 -23.333 49 -63 49 -119
c0 -28 -3.83301 -52.667 -11.5 -74s-19.667 -38.833 -36 -52.5s-36.666 -23.5 -60.999 -29.5s-44.5 -9 -60.5 -9h-124v500z" />
    <glyph glyph-name="ucircumflex" unicode="&#xfb;" horiz-adv-x="574" 
d="M65 0l-0.000976562 552h58v-237h42c66.667 0 114.667 -10.333 144 -31c32.667 -23.333 49 -63 49 -119c0 -28 -3.83301 -52.667 -11.5 -74s-19.667 -38.833 -36 -52.5s-36.666 -23.5 -60.999 -29.5s-44.5 -9 -60.5 -9h-124zM122.999 263v-211h24
c53.333 0 90 5.33301 110 16c28.667 15.333 43 46.333 43 93c0 40 -10.667 67.667 -32 83c-18 12.667 -48.333 19 -91 19h-54zM508.999 0h-58v552h58v-552z" />
    <glyph glyph-name="ucircumflex" unicode="&#x44b;" horiz-adv-x="574" 
d="M65 0l-0.000976562 552h58v-237h42c66.667 0 114.667 -10.333 144 -31c32.667 -23.333 49 -63 49 -119c0 -28 -3.83301 -52.667 -11.5 -74s-19.667 -38.833 -36 -52.5s-36.666 -23.5 -60.999 -29.5s-44.5 -9 -60.5 -9h-124zM122.999 263v-211h24
c53.333 0 90 5.33301 110 16c28.667 15.333 43 46.333 43 93c0 40 -10.667 67.667 -32 83c-18 12.667 -48.333 19 -91 19h-54zM508.999 0h-58v552h58v-552z" />
    <glyph glyph-name="udieresis" unicode="&#xfc;" horiz-adv-x="389" 
d="M65 0l-0.000976562 552h58v-237h42c66.667 0 114.667 -10.333 144 -31c32.667 -23.333 49 -63 49 -119c0 -28 -3.83301 -52.667 -11.5 -74s-19.667 -38.833 -36 -52.5s-36.666 -23.5 -60.999 -29.5s-44.5 -9 -60.5 -9h-124zM122.999 263v-211h24
c53.333 0 90 5.33301 110 16c28.667 15.333 43 46.333 43 93c0 40 -10.667 67.667 -32 83c-18 12.667 -48.333 19 -91 19h-54z" />
    <glyph glyph-name="udieresis" unicode="&#x44c;" horiz-adv-x="389" 
d="M65 0l-0.000976562 552h58v-237h42c66.667 0 114.667 -10.333 144 -31c32.667 -23.333 49 -63 49 -119c0 -28 -3.83301 -52.667 -11.5 -74s-19.667 -38.833 -36 -52.5s-36.666 -23.5 -60.999 -29.5s-44.5 -9 -60.5 -9h-124zM122.999 263v-211h24
c53.333 0 90 5.33301 110 16c28.667 15.333 43 46.333 43 93c0 40 -10.667 67.667 -32 83c-18 12.667 -48.333 19 -91 19h-54z" />
    <glyph glyph-name="yacute" unicode="&#xfd;" horiz-adv-x="389" 
d="M294 314c0 74.667 -9.99902 127.998 -29.999 159.998c-17.333 27.333 -42 41 -74 41c-30 0 -53.667 -12.167 -71 -36.5s-26 -54.166 -26 -89.499h-57c0 48.667 13.167 90.334 39.5 125.001s63.166 52 110.499 52c67.333 0 114 -33 140 -99
c17.333 -44 26 -106.667 26 -188c0 -88 -7.66699 -152.333 -23 -193c-24.667 -66.667 -73 -100 -145 -100c-54 0 -94 20 -120 60c-22 34 -33 79.667 -33 137h58c4.66699 -46.667 10.667 -78.667 18 -96c14.667 -33.333 40 -50 76 -50c48 0 80.333 27.667 97 83
c9.33301 31.333 14 79 14 143h-171v51h171z" />
    <glyph glyph-name="yacute" unicode="&#x44d;" horiz-adv-x="389" 
d="M294 314c0 74.667 -9.99902 127.998 -29.999 159.998c-17.333 27.333 -42 41 -74 41c-30 0 -53.667 -12.167 -71 -36.5s-26 -54.166 -26 -89.499h-57c0 48.667 13.167 90.334 39.5 125.001s63.166 52 110.499 52c67.333 0 114 -33 140 -99
c17.333 -44 26 -106.667 26 -188c0 -88 -7.66699 -152.333 -23 -193c-24.667 -66.667 -73 -100 -145 -100c-54 0 -94 20 -120 60c-22 34 -33 79.667 -33 137h58c4.66699 -46.667 10.667 -78.667 18 -96c14.667 -33.333 40 -50 76 -50c48 0 80.333 27.667 97 83
c9.33301 31.333 14 79 14 143h-171v51h171z" />
    <glyph glyph-name="thorn" unicode="&#xfe;" horiz-adv-x="593" 
d="M369 37c50.667 0 84.999 29.668 102.999 89.001c10 33.333 15 83.666 15 150.999c0 68.667 -5 119 -15 151c-18 58 -53.333 87 -106 87c-45.333 0 -76.666 -28.333 -93.999 -85c-10.667 -34.667 -16 -82 -16 -142c0 -75.333 3.66699 -127.333 11 -156
c16 -63.333 50 -95 102 -95zM197.999 270.001h-75.001v-270h-58v552h58v-231h76c0 70 11.333 125.333 34 166c29.333 52.667 76 79 140 79c68.667 0 116.667 -32.667 144 -98c18.667 -44.667 28 -108 28 -190c0 -85.333 -9 -149.666 -27 -192.999
c-27.333 -66 -76.666 -99 -147.999 -99s-120 31.333 -146 94c-17.333 41.333 -26 104.666 -26 189.999z" />
    <glyph glyph-name="thorn" unicode="&#x44e;" horiz-adv-x="593" 
d="M369 37c50.667 0 84.999 29.668 102.999 89.001c10 33.333 15 83.666 15 150.999c0 68.667 -5 119 -15 151c-18 58 -53.333 87 -106 87c-45.333 0 -76.666 -28.333 -93.999 -85c-10.667 -34.667 -16 -82 -16 -142c0 -75.333 3.66699 -127.333 11 -156
c16 -63.333 50 -95 102 -95zM197.999 270.001h-75.001v-270h-58v552h58v-231h76c0 70 11.333 125.333 34 166c29.333 52.667 76 79 140 79c68.667 0 116.667 -32.667 144 -98c18.667 -44.667 28 -108 28 -190c0 -85.333 -9 -149.666 -27 -192.999
c-27.333 -66 -76.666 -99 -147.999 -99s-120 31.333 -146 94c-17.333 41.333 -26 104.666 -26 189.999z" />
    <glyph glyph-name="ydieresis" unicode="&#xff;" horiz-adv-x="402" 
d="M242 255c-40 0 -67.334 -3.66895 -82.001 -11.002c-22.667 -11.333 -34 -34 -34 -68c0 -47.333 -1.66699 -84.166 -5 -110.499s-9 -48.166 -17 -65.499h-62v7c11.333 6 18.333 23.333 21 52s4 57.334 4 86.001c0 39.333 4.83301 69.666 14.5 90.999s29.834 36 60.501 44
c-27.333 6.66699 -47.833 22.5 -61.5 47.5s-20.5 52.833 -20.5 83.5c0 52.667 15.667 90 47 112c27.333 19.333 69 29 125 29h109v-552h-58v255h-41zM282.999 499.998h-52.002c-41.333 0 -69.666 -5.66699 -84.999 -17c-19.333 -14 -29 -40.333 -29 -79
c0 -32.667 8.83301 -57.167 26.5 -73.5s41.834 -24.5 72.501 -24.5h67v194z" />
    <glyph glyph-name="ydieresis" unicode="&#x44f;" horiz-adv-x="402" 
d="M242 255c-40 0 -67.334 -3.66895 -82.001 -11.002c-22.667 -11.333 -34 -34 -34 -68c0 -47.333 -1.66699 -84.166 -5 -110.499s-9 -48.166 -17 -65.499h-62v7c11.333 6 18.333 23.333 21 52s4 57.334 4 86.001c0 39.333 4.83301 69.666 14.5 90.999s29.834 36 60.501 44
c-27.333 6.66699 -47.833 22.5 -61.5 47.5s-20.5 52.833 -20.5 83.5c0 52.667 15.667 90 47 112c27.333 19.333 69 29 125 29h109v-552h-58v255h-41zM282.999 499.998h-52.002c-41.333 0 -69.666 -5.66699 -84.999 -17c-19.333 -14 -29 -40.333 -29 -79
c0 -32.667 8.83301 -57.167 26.5 -73.5s41.834 -24.5 72.501 -24.5h67v194z" />
    <glyph glyph-name="OE" unicode="&#x152;" horiz-adv-x="851" 
d="M488 364v-305.999h57c69.333 0 118.333 8.66699 147 26c38.667 23.333 58 67 58 131c0 55.333 -14.333 94.666 -43 117.999c-26 20.667 -66.667 31 -122 31h-97zM423 373.001h-289.998v-373h-65v750h65v-319h290v319h65v-328h69c90 0 154.333 -13.667 193 -41
c43.333 -30.667 65 -84 65 -160c0 -39.333 -4.83301 -72.5 -14.5 -99.5s-25.834 -49.833 -48.501 -68.5c-16 -14 -37.667 -25.667 -65 -35c-34.667 -12 -67.334 -18 -98.001 -18h-166v373z" />
    <glyph glyph-name="OE" unicode="&#x40a;" horiz-adv-x="851" 
d="M488 364v-305.999h57c69.333 0 118.333 8.66699 147 26c38.667 23.333 58 67 58 131c0 55.333 -14.333 94.666 -43 117.999c-26 20.667 -66.667 31 -122 31h-97zM423 373.001h-289.998v-373h-65v750h65v-319h290v319h65v-328h69c90 0 154.333 -13.667 193 -41
c43.333 -30.667 65 -84 65 -160c0 -39.333 -4.83301 -72.5 -14.5 -99.5s-25.834 -49.833 -48.501 -68.5c-16 -14 -37.667 -25.667 -65 -35c-34.667 -12 -67.334 -18 -98.001 -18h-166v373z" />
    <glyph glyph-name="oe" unicode="&#x153;" horiz-adv-x="648" 
d="M379 263v-211h24c53.333 0 90 5.33301 110 16c28.667 15.333 43 46.333 43 93c0 40 -10.667 67.667 -32 83c-18 12.667 -48.333 19 -91 19h-54zM321 270h-198.001v-270h-58v552h58v-231h198v231h58v-237h42c66.667 0 114.667 -10.333 144 -31
c32.667 -23.333 49 -63 49 -119c0 -28 -3.83301 -52.667 -11.5 -74s-19.667 -38.833 -36 -52.5s-36.666 -23.5 -60.999 -29.5s-44.5 -9 -60.5 -9h-124v270z" />
    <glyph glyph-name="oe" unicode="&#x45a;" horiz-adv-x="648" 
d="M379 263v-211h24c53.333 0 90 5.33301 110 16c28.667 15.333 43 46.333 43 93c0 40 -10.667 67.667 -32 83c-18 12.667 -48.333 19 -91 19h-54zM321 270h-198.001v-270h-58v552h58v-231h198v231h58v-237h42c66.667 0 114.667 -10.333 144 -31
c32.667 -23.333 49 -63 49 -119c0 -28 -3.83301 -52.667 -11.5 -74s-19.667 -38.833 -36 -52.5s-36.666 -23.5 -60.999 -29.5s-44.5 -9 -60.5 -9h-124v270z" />
    <glyph glyph-name="Scaron" unicode="&#x160;" horiz-adv-x="851" 
d="M488 364v-305.999h57c69.333 0 118.333 8.66699 147 26c38.667 23.333 58 67 58 131c0 55.333 -14.333 94.666 -43 117.999c-26 20.667 -66.667 31 -122 31h-97zM488 750.001l0.00195312 -328h69c90 0 154.333 -13.667 193 -41c43.333 -30.667 65 -84 65 -160
c0 -39.333 -4.83301 -72.5 -14.5 -99.5s-25.834 -49.833 -48.501 -68.5c-16 -14 -37.667 -25.667 -65 -35c-34.667 -12 -67.334 -18 -98.001 -18h-166v692h-247v-432c0 -117.333 -11.667 -193 -35 -227s-61 -51 -113 -51v64c37.333 0 61.333 19.333 72 58
c7.33301 26.667 11 82 11 166v480h377z" />
    <glyph glyph-name="Scaron" unicode="&#x409;" horiz-adv-x="851" 
d="M488 364v-305.999h57c69.333 0 118.333 8.66699 147 26c38.667 23.333 58 67 58 131c0 55.333 -14.333 94.666 -43 117.999c-26 20.667 -66.667 31 -122 31h-97zM488 750.001l0.00195312 -328h69c90 0 154.333 -13.667 193 -41c43.333 -30.667 65 -84 65 -160
c0 -39.333 -4.83301 -72.5 -14.5 -99.5s-25.834 -49.833 -48.501 -68.5c-16 -14 -37.667 -25.667 -65 -35c-34.667 -12 -67.334 -18 -98.001 -18h-166v692h-247v-432c0 -117.333 -11.667 -193 -35 -227s-61 -51 -113 -51v64c37.333 0 61.333 19.333 72 58
c7.33301 26.667 11 82 11 166v480h377z" />
    <glyph glyph-name="scaron" unicode="&#x161;" horiz-adv-x="648" 
d="M379 263v-211h24c53.333 0 90 5.33301 110 16c28.667 15.333 43 46.333 43 93c0 40 -10.667 67.667 -32 83c-18 12.667 -48.333 19 -91 19h-54zM379 552l-0.000976562 -237.001h42c66.667 0 114.667 -10.333 144 -31c32.667 -23.333 49 -63 49 -119
c0 -28 -3.83301 -52.667 -11.5 -74s-19.667 -38.833 -36 -52.5s-36.666 -23.5 -60.999 -29.5s-44.5 -9 -60.5 -9h-124v500h-166v-309c0 -82 -11 -137.667 -33 -167c-19.333 -25.333 -48.333 -38 -87 -38v60c26.667 0 43.667 10.833 51 32.5s11 61.834 11 120.501v353h282z
" />
    <glyph glyph-name="scaron" unicode="&#x459;" horiz-adv-x="648" 
d="M379 263v-211h24c53.333 0 90 5.33301 110 16c28.667 15.333 43 46.333 43 93c0 40 -10.667 67.667 -32 83c-18 12.667 -48.333 19 -91 19h-54zM379 552l-0.000976562 -237.001h42c66.667 0 114.667 -10.333 144 -31c32.667 -23.333 49 -63 49 -119
c0 -28 -3.83301 -52.667 -11.5 -74s-19.667 -38.833 -36 -52.5s-36.666 -23.5 -60.999 -29.5s-44.5 -9 -60.5 -9h-124v500h-166v-309c0 -82 -11 -137.667 -33 -167c-19.333 -25.333 -48.333 -38 -87 -38v60c26.667 0 43.667 10.833 51 32.5s11 61.834 11 120.501v353h282z
" />
    <glyph glyph-name="Ydieresis" unicode="&#x178;" 
d="M248 0v-108h-57v108h-126v552h58l-4 -500h198l4 500h58v-552h-131z" />
    <glyph glyph-name="Ydieresis" unicode="&#x45f;" 
d="M248 0v-108h-57v108h-126v552h58l-4 -500h198l4 500h58v-552h-131z" />
    <glyph glyph-name="florin" unicode="&#x192;" horiz-adv-x="360" 
d="M123 0h-57v552h258v-52h-201v-500zM169 606h-51l111 139h78z" />
    <glyph glyph-name="florin" unicode="&#x453;" horiz-adv-x="360" 
d="M123 0h-57v552h258v-52h-201v-500zM169 606h-51l111 139h78z" />
    <glyph glyph-name="endash" unicode="&#x2013;" horiz-adv-x="500" 
d="M500 273h-500v51h500v-51z" />
    <glyph glyph-name="emdash" unicode="&#x2014;" horiz-adv-x="1000" 
d="M1000 273h-1000v51h1000v-51z" />
    <glyph glyph-name="quoteleft" unicode="&#x2018;" horiz-adv-x="160" 
d="M111 750l-0.000976562 -37.002c-12.667 -5.33301 -20.834 -14.166 -24.501 -26.499s-5.5 -28.166 -5.5 -47.499v-12v-13h30v-88h-69v56c0 7.33301 0.333008 19 1 35s1 28 1 36c2.66699 30 8.83398 52.167 18.501 66.5s25.834 24.5 48.501 30.5z" />
    <glyph glyph-name="quoteright" unicode="&#x2019;" horiz-adv-x="160" 
d="M49 526l0.00292969 37c11.333 4.66699 19.166 12.5 23.499 23.5s6.5 31.833 6.5 62.5v13h-30v88h69v-56c0 -7.33301 -0.333008 -19 -1 -35s-1 -28 -1 -36c-2.66699 -30 -8.83398 -52.167 -18.501 -66.5s-25.834 -24.5 -48.501 -30.5z" />
    <glyph glyph-name="quotesinglbase" unicode="&#x201a;" horiz-adv-x="222" 
d="M77 -136l0.00292969 37c11.333 4.66699 19.166 12.5 23.499 23.5s6.5 31.833 6.5 62.5v13h-30v88h69v-56c0 -7.33301 -0.333008 -19 -1 -35s-1 -28 -1 -36c-2.66699 -30 -8.83398 -52.167 -18.501 -66.5s-25.834 -24.5 -48.501 -30.5z" />
    <glyph glyph-name="quotedblleft" unicode="&#x201c;" horiz-adv-x="333" 
d="M154 750l-0.000976562 -37.002c-12.667 -5.33301 -20.834 -14.166 -24.501 -26.499s-5.5 -28.166 -5.5 -47.499v-12v-13h30v-88h-69v56c0 7.33301 0.333008 19 1 35s1 28 1 36c2.66699 30 8.83398 52.167 18.501 66.5s25.834 24.5 48.501 30.5zM283.999 749.998
l-0.000976562 -37.002c-12.667 -5.33301 -20.834 -14.166 -24.501 -26.499s-5.5 -28.166 -5.5 -47.499v-12v-13h30v-88h-69v56c0 7.33301 0.333008 19 1 35s1 28 1 36c2.66699 30 8.83398 52.167 18.501 66.5s25.834 24.5 48.501 30.5z" />
    <glyph glyph-name="quotedblright" unicode="&#x201d;" horiz-adv-x="333" 
d="M179 526l0.00292969 37c11.333 4.66699 19.166 12.5 23.499 23.5s6.5 31.833 6.5 62.5v13h-30v88h69v-56c0 -7.33301 -0.333008 -19 -1 -35s-1 -28 -1 -36c-2.66699 -30 -8.83398 -52.167 -18.501 -66.5s-25.834 -24.5 -48.501 -30.5zM49.0029 526l0.00292969 37
c11.333 4.66699 19.166 12.5 23.499 23.5s6.5 31.833 6.5 62.5v13h-30v88h69v-56c0 -7.33301 -0.333008 -19 -1 -35s-1 -28 -1 -36c-2.66699 -30 -8.83398 -52.167 -18.501 -66.5s-25.834 -24.5 -48.501 -30.5z" />
    <glyph glyph-name="quotedblbase" unicode="&#x201e;" horiz-adv-x="330" 
d="M196 -136l0.00292969 37c11.333 4.66699 19.166 12.5 23.499 23.5s6.5 31.833 6.5 62.5v13h-30v88h69v-56c0 -7.33301 -0.333008 -19 -1 -35s-1 -28 -1 -36c-2.66699 -30 -8.83398 -52.167 -18.501 -66.5s-25.834 -24.5 -48.501 -30.5zM66.0029 -136l0.00292969 37
c11.333 4.66699 19.166 12.5 23.499 23.5s6.5 31.833 6.5 62.5v13h-30v88h69v-56c0 -7.33301 -0.333008 -19 -1 -35s-1 -28 -1 -36c-2.66699 -30 -8.83398 -52.167 -18.501 -66.5s-25.834 -24.5 -48.501 -30.5z" />
    <glyph glyph-name="dagger" unicode="&#x2020;" 
d="M252 539h160v-51h-160v-605h-58v605h-162v51h162v229h58v-229z" />
    <glyph glyph-name="daggerdbl" unicode="&#x2021;" 
d="M251 157h162v-51h-162v-223h-58v223h-162v51h162v338h-160v51h160v222h58v-222h162v-51h-162v-338z" />
    <glyph glyph-name="bullet" unicode="&#x2022;" horiz-adv-x="606" 
d="M490 375c0 -50.667 -18.3311 -94.334 -54.998 -131.001s-81 -55 -133 -55c-50.667 0 -94.334 18.333 -131.001 55s-55 80.334 -55 131.001c0 51.333 18.167 95.5 54.5 132.5s80.166 55.5 131.499 55.5c52 0 96.333 -18.333 133 -55s55 -81 55 -133z" />
    <glyph glyph-name="ellipsis" unicode="&#x2026;" horiz-adv-x="1000" 
d="M202 0h-69v88h69v-88zM535 0h-69v88h69v-88zM868 0h-69v88h69v-88z" />
    <glyph glyph-name="perthousand" unicode="&#x2030;" horiz-adv-x="1000" 
d="M165 -15l304 756h44l-305 -756h-43zM513 358c48 0 83.001 -19.001 105.001 -57.001c17.333 -30.667 26 -72 26 -124c0 -62 -11.333 -107.333 -34 -136s-55.334 -43 -98.001 -43c-52 0 -88.333 18.333 -109 55c-16 28.667 -24 70 -24 124
c0 54.667 8.33301 96.334 25 125.001c22 37.333 58.333 56 109 56zM513.001 313.999c-31.333 0 -53.333 -17.333 -66 -52c-8 -22 -12 -50 -12 -84c0 -49.333 6.5 -84.333 19.5 -105s33.167 -31 60.5 -31c26 0 44.667 12.333 56 37s17 57.667 17 99
c0 40 -3.33301 69.333 -10 88c-11.333 32 -33 48 -65 48zM835.001 357.999c48 0 83.001 -19.001 105.001 -57.001c17.333 -30.667 26 -72 26 -124c0 -62 -11.333 -107.333 -34 -136s-55.334 -43 -98.001 -43c-52 0 -88.333 18.333 -109 55c-16 28.667 -24 70 -24 124
c0 54.667 8.33301 96.334 25 125.001c22 37.333 58.333 56 109 56zM835.002 313.998c-31.333 0 -53.333 -17.333 -66 -52c-8 -22 -12 -50 -12 -84c0 -49.333 6.5 -84.333 19.5 -105s33.167 -31 60.5 -31c26 0 44.667 12.333 56 37s17 57.667 17 99
c0 40 -3.33301 69.333 -10 88c-11.333 32 -33 48 -65 48zM168.002 727.998c48 0 83.001 -19.001 105.001 -57.001c17.333 -30.667 26 -72 26 -124c0 -62 -11.333 -107.333 -34 -136s-55.334 -43 -98.001 -43c-52 0 -88.333 18.333 -109 55c-16 28.667 -24 70 -24 124
c0 54.667 8.33301 96.334 25 125.001c22 37.333 58.333 56 109 56zM168.003 683.997c-31.333 0 -53.333 -17.333 -66 -52c-8 -22 -12 -50 -12 -84c0 -49.333 6.5 -84.333 19.5 -105s33.167 -31 60.5 -31c26 0 44.667 12.333 56 37s17 57.667 17 99
c0 40 -3.33301 69.333 -10 88c-11.333 32 -33 48 -65 48z" />
    <glyph glyph-name="guilsinglleft" unicode="&#x2039;" horiz-adv-x="333" 
d="M231 130l-141 106v70l141 106v-60l-101 -81l101 -79v-62z" />
    <glyph glyph-name="guilsinglright" unicode="&#x203a;" horiz-adv-x="333" 
d="M102 352v60l141 -106v-70l-141 -106v62l102 79z" />
    <glyph glyph-name="trademark" unicode="&#x2122;" horiz-adv-x="722" 
d="M666 750v-421h-51v368l-96 -368h-36l-93 368l-2 -368h-51v421h88l75 -297l80 297h86zM292 750v-51h-92v-370h-51v370h-92v51h235z" />
    <glyph glyph-name=".null" horiz-adv-x="0" 
 />
    <glyph glyph-name="nonmarkingreturn" horiz-adv-x="222" 
 />
    </font>
</defs>
</svg>
